<?xml version="1.0" encoding="utf-8"?>
<!-- Generator: Adobe Illustrator 21.0.0, SVG Export Plug-In . SVG Version: 6.00 Build 0)  -->
<svg version="1.1" id="グループ_779" xmlns="http://www.w3.org/2000/svg" xmlns:xlink="http://www.w3.org/1999/xlink" x="0px"
	 y="0px" viewBox="0 0 130 31.5" style="enable-background:new 0 0 130 31.5;" xml:space="preserve">
<style type="text/css">
	.st0{fill:#FFFFFF;}
</style>
<path class="st0" d="M2.5,12c1,0.5,1.9,1.2,2.8,1.9l-0.9,1.5c-0.9-0.8-1.8-1.5-2.8-2.1L2.5,12z M4.5,17.1l1.4,0.8
	c-0.6,2.2-1.5,4.2-2.6,6.2c0.1,0.5-0.1,0.7-0.4,0.4l-1.1-1.4C2.8,21.2,3.7,19.2,4.5,17.1L4.5,17.1z M3.6,7c1,0.5,1.9,1.2,2.8,1.9
	l-1,1.4C4.5,9.7,3.6,9,2.7,8.4L3.6,7z M5.9,24.4l-0.4-1.5L11,22l0.6-2.8l1.5,0.2c0.4,0.1,0.4,0.2,0,0.5l-0.6,1.9l1.7-0.3v1.3
	c1.8-1,3.4-2.6,4.9-4.8l1,1.2c0.4,0.4,0.3,0.5-0.2,0.5c-1.4,2.1-3.2,3.8-5.4,5l-0.8-1.8l-7.1,1.5C6.2,24.9,6,24.9,5.9,24.4L5.9,24.4
	z M9.7,9.7H6.4V8.4h3.2V6.3H11c0.4,0.1,0.5,0.2,0.1,0.5v1.6h3.2v1.3H11v1.9H14V13H6.7v-1.3h2.9L9.7,9.7z M13.6,14.4v4.4H7.1v-4.4
	H13.6z M9.8,21.6L8.3,22c-0.2-0.8-0.5-1.5-0.8-2.2L9,19.4C9.4,20.1,9.7,20.8,9.8,21.6L9.8,21.6z M12.3,17.5v-1.8H8.5v1.8H12.3z
	 M19,8.7c-1.2,1.4-2.6,2.6-4.2,3.5l-0.7-1.5c1.5-0.9,2.8-2.1,3.9-3.5l1.1,1C19.6,8.5,19.6,8.7,19,8.7L19,8.7z M14.2,16.6
	c1.6-1.1,2.9-2.5,4-4.1l1.1,0.8c0.4,0.3,0.4,0.5-0.2,0.6c-1,1.7-2.5,3.1-4.2,4.2L14.2,16.6z"/>
<path class="st0" d="M24.4,24.8l-1.4-1.3c1.1-2,2-4.1,2.8-6.2l1.5,1c-0.8,2.2-1.5,4.3-2.4,6.3C25.1,25.3,24.9,25.3,24.4,24.8z
	 M26.5,15.9c-0.9-0.8-1.9-1.5-3-2l1-1.7c1.2,0.4,2.2,1.1,3.1,1.9L26.5,15.9z M27,10.7c-0.8-0.8-1.8-1.5-2.8-2l1-1.7
	c1.1,0.5,2.1,1.1,2.9,1.9L27,10.7z M28.3,23.4v-8.3h2.2v-3.4h-2.6v-1.5h2.6V6.7H32c0.4,0.1,0.5,0.2,0.1,0.5v3h2.8v1.5h-2.8v3.4h2.4
	v7h-4.5v1.3L28.3,23.4z M29.9,16.4v4.4h2.9v-4.4H29.9z M35.9,7.5h5.2v16.2c0,0.9-0.4,1.3-1.3,1.3h-1.3l-0.3-1.8h1
	c0.2,0,0.3-0.1,0.3-0.2c0,0,0-0.1,0-0.1v-4.5h-2.2c0.1,3.1-1,5.3-3.2,6.6l-0.9-1.6c1.8-0.8,2.8-2.6,2.8-5.5L35.9,7.5z M37.3,9v3.2
	h2.2V9L37.3,9z M37.3,13.8v3.1h2.2v-3.1L37.3,13.8z"/>
<path class="st0" d="M49.3,11.8h2.1v1.5h-2.1v5.9l2.4-0.8v1.7l-5.8,2.1c-0.1,0.4-0.3,0.5-0.6,0.1l-0.5-1.7l2.8-0.8v-6.4h-2.5v-1.5
	h2.5V7h1.5c0.4,0.1,0.5,0.2,0.1,0.5L49.3,11.8z M57.4,22.6c0.7-3.3,1.3-6.7,1.6-10.1l1.8,0.3c0.5,0.1,0.5,0.3,0,0.5
	c-0.5,3.1-1.1,6.2-1.8,9.2h4.3v1.5H50.7v-1.5H57.4z M57.8,6.8v3.5h4.8v1.5H51.8v-1.5h4.4v-4h1.5C58.1,6.4,58.2,6.5,57.8,6.8
	L57.8,6.8z M54.6,12.8c0.7,2.7,1.1,5.5,1.3,8.3l-1.7,0.5c-0.2-2.8-0.6-5.6-1.3-8.3L54.6,12.8z"/>
<path class="st0" d="M70.6,11.9h2.7v1.5h-2.7v5.7l2.7-0.8V20l-5.9,2.1c-0.1,0.4-0.3,0.5-0.6,0.1l-0.5-1.7l2.7-0.8v-6.2h-2.7v-1.6H69
	V7h1.5C70.9,7,71,7.2,70.6,7.4L70.6,11.9z M75.1,9.1h-1.6V7.6h8.9l-0.9,5.2h1.6l0.3-0.4l1.5,1l-0.4,0.3c-0.7,2.4-1.8,4.6-3.3,6.6
	c0.9,0.9,2.3,1.7,4.1,2.4l-1,1.6c-1.6-0.7-3-1.7-4.2-2.9c-1.2,1.3-2.6,2.5-4.2,3.5l-0.8-1.6c1.4-0.8,2.8-1.9,3.9-3.1
	c-1.2-1.5-2-3.2-2.4-5c-0.1,3-1.4,6.2-4,9.6l-1-1.6c2.3-2.5,3.4-5.7,3.4-9.4L75.1,9.1z M80.4,9.1h-3.6v3.7h3L80.4,9.1z M77.6,14.3
	c0.5,1.8,1.3,3.4,2.4,4.9c1.2-1.4,2-3.1,2.5-4.9L77.6,14.3z"/>
<path class="st0" d="M89.4,9.1L89,7.6c4.8,0,9.5-0.4,14.3-1.1l1.1,1.5c0.1,0.3-0.1,0.3-0.6,0.2c-2.2,0.3-4.4,0.5-6.8,0.7l1,0.7
	c0.4,0.3,0.2,0.4-0.4,0.5c-1.4,1.5-2.4,2.6-3.2,3.4l1.9,1.1c1.5-1.3,2.9-2.7,4.2-4.2l1.5,1.1c0.4,0.3,0.2,0.4-0.4,0.4
	c-1.7,1.5-3.5,3-5.4,4.5l5.9-0.3c-0.5-0.5-1-0.9-1.5-1.3l1.2-1.1c1.7,1.1,3.2,2.5,4.4,4.2l-1.5,1.4c-0.4-0.7-0.8-1.3-1.4-1.8
	L98,17.7V25h-1.6v-7.1l-6.8,0.4c0,0.4-0.2,0.5-0.4,0.2l-0.6-2l5.2-0.1l1-0.7c-1.3-1-2.7-1.8-4.2-2.6l1-1.3l1.5,0.7
	c0.6-0.5,1.6-1.8,3.1-3.6C93.9,9,91.6,9.1,89.4,9.1z M94.8,19.9c0.4,0.3,0.4,0.4-0.2,0.5c-1.3,1.7-2.8,3.1-4.6,4.2l-1.2-1.7
	c1.7-1,3.2-2.3,4.5-3.9L94.8,19.9z M105.2,24.2c-2.1-0.9-4-2.4-5.4-4.2l1.5-1.2c1.3,1.6,3,2.8,4.9,3.6L105.2,24.2z"/>
<path class="st0" d="M112.9,15l2.7-0.2l-0.7-1.3l1.3-0.6c0.8,1,1.4,2.2,1.9,3.4l-1.5,0.7l-0.3-0.8l-1.8,0.2v8.8h-1.6v-8.7l-2.8,0.2
	c-0.1,0.4-0.2,0.5-0.4,0.2l-0.3-1.8l1.7-0.1l1.3-1.5c-0.9-0.7-1.9-1.4-3-2.1l1-1.3l0.7,0.4l2.5-4.1l1.4,0.8c0.4,0.2,0.3,0.4-0.2,0.4
	l-2.5,3.6l1.1,0.9l2.2-3.2l1.2,0.8c0.4,0.3,0.4,0.4-0.2,0.4L112.9,15z M109.5,22.8c0.4-1.6,0.6-3.2,0.7-4.9l1.8,0.2
	c0.3,0.2,0.2,0.3-0.2,0.5c-0.1,1.7-0.3,3.3-0.7,4.9L109.5,22.8z M116.3,17.6c0.7,1.2,1,2.6,1.1,4l-1.6,0.4c-0.1-1.4-0.4-2.8-0.9-4.2
	L116.3,17.6z M122.6,10.9l-1.9,3.4l4.2-0.1c-0.3-0.4-0.8-0.9-1.3-1.5l1.2-1c1.1,1.1,2.1,2.3,2.9,3.6l-1.5,1l-0.6-0.9l-1,0.1v6.8
	c0,0.4,0.2,0.7,0.6,0.7h0.7c0.3,0,0.5-0.2,0.6-0.7l0.1-1.2l1.6,0.5l-0.2,1.4c-0.1,1.1-0.6,1.6-1.4,1.6h-2.2c-1,0-1.5-0.5-1.5-1.4
	v-7.5l-1.9,0.1v3.5c0,3.2-1.5,5.2-4.5,5.9l-0.6-1.7c2.4-0.5,3.6-1.9,3.6-4.3v-3.3l-0.9,0.1c-0.1,0.4-0.2,0.5-0.4,0.2l-0.4-1.9h1.3
	l1.6-3.5h-3.2V9.3h3.8V6.4h1.5c0.4,0.1,0.5,0.2,0.1,0.5v2.4h4.6v1.5L122.6,10.9z"/>
</svg>
