<?xml version="1.0" encoding="utf-8"?>
<!-- Generator: Adobe Illustrator 21.0.0, SVG Export Plug-In . SVG Version: 6.00 Build 0)  -->
<svg version="1.1" id="圖層_1" xmlns="http://www.w3.org/2000/svg" xmlns:xlink="http://www.w3.org/1999/xlink" x="0px" y="0px"
	 viewBox="0 0 212.6 272.4" style="enable-background:new 0 0 212.6 272.4;" xml:space="preserve">
<style type="text/css">
	.st0{fill:none;stroke:#FFFFFF;stroke-width:12;stroke-linecap:round;stroke-linejoin:round;}
	.st1{fill:#FFFFFF;}
</style>
<circle class="st0" cx="106.2" cy="114.9" r="99.1"/>
<path class="st1" d="M67.6,131.1H50.5v26.1c0.2,3.1-0.7,6.1-2.6,8.5c-1.7,1.9-4.1,2.9-6.7,2.9c-2.6,0.1-5.1-0.9-6.8-2.9
	c-1.9-2.4-2.8-5.4-2.6-8.4v-71c0-4.1,0.9-7,2.8-8.8s4.9-2.6,8.9-2.6h24c5.5-0.2,11,0.4,16.3,1.6c3.6,1,7,2.8,9.8,5.2
	c2.8,2.4,4.9,5.5,6.3,8.9c1.5,3.8,2.2,7.8,2.1,11.9c0,9.4-2.9,16.5-8.7,21.3C87.7,128.7,79.1,131.1,67.6,131.1z M63.1,88.9H50.6V117
	h12.5c3.7,0.1,7.4-0.4,11-1.4c2.7-0.7,5.1-2.3,6.8-4.5c1.6-2.4,2.5-5.3,2.3-8.2c0.2-3.6-1.1-7.2-3.6-9.9
	C76.9,90.3,71.4,88.9,63.1,88.9z"/>
<path class="st1" d="M177.5,90.3h-20.4v66.9c0.2,3.1-0.7,6.1-2.6,8.6c-1.7,1.9-4.1,2.9-6.7,2.8c-2.6,0.1-5-0.9-6.8-2.8
	c-1.9-2.4-2.8-5.5-2.6-8.5V90.3h-20.4c-2.6,0.2-5.1-0.5-7.1-2.1c-1.6-1.4-2.4-3.5-2.3-5.6c-0.1-2.1,0.9-4.2,2.5-5.6
	c2-1.5,4.5-2.2,7-2.1h59.3c2.6-0.2,5.1,0.6,7.1,2.1c1.6,1.4,2.4,3.5,2.4,5.6c0.1,2.1-0.8,4.2-2.4,5.6
	C182.5,89.8,180,90.5,177.5,90.3z"/>
<path class="st1" d="M10.4,248.7c1.5,0.8,3,1.8,4.3,2.9l-1.4,2.4c-1.3-1.2-2.8-2.3-4.3-3.3L10.4,248.7z M13.4,256.6l2.1,1.3
	c-1,3.4-2.3,6.6-4,9.7c0.1,0.8-0.1,1-0.6,0.6L9.1,266C10.7,263,12.2,259.9,13.4,256.6L13.4,256.6z M12,241.1c1.5,0.9,3,1.9,4.3,3
	l-1.5,2.1c-1.3-1.1-2.7-2.1-4.1-3L12,241.1z M15.5,268l-0.6-2.4l8.6-1.3l0.9-4.4l2.3,0.4c0.7,0.1,0.7,0.3,0,0.8l-0.9,2.9l2.6-0.5v2
	c2.8-1.6,5.3-4.1,7.5-7.4l1.6,1.9c0.6,0.6,0.5,0.8-0.4,0.8c-2.1,3.2-5,5.9-8.4,7.8l-1.3-2.8L16.4,268
	C16.1,268.8,15.8,268.8,15.5,268L15.5,268z M21.4,245.2h-5v-2h5v-3.3h2c0.7,0.1,0.7,0.3,0.1,0.8v2.5h5v2h-5v3h4.5v2H16.9v-2h4.5
	L21.4,245.2z M27.6,252.5v6.8H17.4v-6.8H27.6z M21.7,263.6l-2.4,0.8c-0.3-1.2-0.7-2.3-1.3-3.4l2.4-0.8
	C21,261.2,21.4,262.4,21.7,263.6L21.7,263.6z M25.5,257.3v-2.8h-5.9v2.8H25.5z M35.9,243.7c-1.8,2.2-4,4-6.4,5.4l-1.1-2.4
	c2.3-1.5,4.3-3.3,6-5.4l1.8,1.5C36.9,243.3,36.8,243.6,35.9,243.7L35.9,243.7z M28.5,255.9c2.4-1.7,4.5-3.8,6.2-6.3l1.8,1.2
	c0.7,0.5,0.6,0.8-0.3,0.9c-1.6,2.6-3.9,4.9-6.5,6.4L28.5,255.9z"/>
<path class="st1" d="M44.4,268.6l-2.1-2c1.6-3.1,3.1-6.4,4.4-9.7l2.3,1.5c-1.2,3.4-2.4,6.7-3.6,9.8
	C45.4,269.3,45.1,269.4,44.4,268.6z M47.5,254.8c-1.4-1.2-3-2.3-4.7-3.1l1.6-2.6c1.8,0.6,3.5,1.7,4.8,3L47.5,254.8z M48.4,246.7
	c-1.3-1.3-2.8-2.4-4.4-3.1l1.5-2.6c1.7,0.7,3.2,1.7,4.5,3L48.4,246.7z M50.3,266.5v-12.8h3.4v-5.3h-4V246h4v-5.4h2.4
	c0.7,0.1,0.7,0.3,0.1,0.8v4.7h4.4v2.4h-4.4v5.3h3.6v10.8h-7v2L50.3,266.5z M52.8,255.6v6.8h4.5v-6.8H52.8z M62.1,241.7h8.1v25.1
	c0,1.3-0.7,2-2,2h-2l-0.5-2.8h1.5c0.2,0,0.5-0.1,0.5-0.4c0,0,0-0.1,0-0.1v-6.9h-3.4c0.1,4.9-1.6,8.3-5,10.2l-1.4-2.5
	c2.9-1.3,4.3-4.1,4.3-8.6L62.1,241.7z M64.2,244.1v5h3.4v-5L64.2,244.1z M64.2,251.5v4.8h3.4v-4.8L64.2,251.5z"/>
<path class="st1" d="M83,248.5h3.3v2.4H83v9.1l3.8-1.3v2.6l-9,3.3c-0.2,0.7-0.5,0.7-0.9,0.1l-0.8-2.6l4.4-1.3v-10h-3.9v-2.4h3.9
	v-7.6h2.4c0.7,0.1,0.7,0.3,0.1,0.8L83,248.5z M95.4,265.2c1.1-5.2,1.9-10.4,2.5-15.6l2.8,0.5c0.8,0.2,0.8,0.4,0,0.8
	c-0.8,4.8-1.8,9.6-2.8,14.3h6.7v2.4H85.1v-2.4H95.4z M96.1,240.7v5.4h7.4v2.4H86.8v-2.4h6.8v-6.2H96C96.6,240,96.7,240.3,96.1,240.7
	L96.1,240.7z M91.2,250c1.1,4.3,1.7,8.6,2,13l-2.6,0.8c-0.3-4.4-0.9-8.7-2-13L91.2,250z"/>
<path class="st1" d="M116,248.6h4.1v2.4H116v8.8l4.1-1.3v2.6l-9.2,3.3c-0.2,0.7-0.5,0.7-0.9,0.1l-0.8-2.6l4.1-1.3V251h-4.1v-2.4h4.1
	v-7.7h2.4c0.7,0.1,0.7,0.3,0.1,0.8L116,248.6z M122.9,244.3h-2.5v-2.4h13.8l-1.4,8.1h2.5l0.5-0.6l2.3,1.6l-0.6,0.5
	c-1.1,3.7-2.8,7.2-5.2,10.3c1.4,1.4,3.5,2.7,6.3,3.8l-1.5,2.5c-2.4-1-4.6-2.6-6.4-4.5c-1.9,2.1-4.1,3.9-6.4,5.4l-1.3-2.5
	c2.2-1.3,4.3-2.9,6-4.8c-1.8-2.3-3.1-5-3.8-7.8c-0.1,4.7-2.1,9.6-6.2,14.8l-1.5-2.5c3.5-3.9,5.3-8.8,5.3-14.6L122.9,244.3z
	 M131.2,244.3h-5.5v5.7h4.6L131.2,244.3z M126.9,252.3c0.7,2.7,2,5.3,3.6,7.5c1.8-2.2,3.1-4.8,3.9-7.5H126.9z"/>
<path class="st1" d="M145.2,244.2l-0.6-2.3c7.4,0,14.8-0.6,22.1-1.8l1.8,2.4c0.2,0.4-0.1,0.5-0.9,0.3c-3.4,0.4-6.9,0.8-10.6,1l1.5,1
	c0.6,0.4,0.4,0.7-0.6,0.8c-2.1,2.3-3.7,4.1-4.9,5.3l2.9,1.8c2.3-2.1,4.5-4.2,6.5-6.5l2.4,1.8c0.6,0.4,0.4,0.6-0.6,0.6
	c-2.7,2.3-5.5,4.7-8.4,7l9.2-0.5c-0.7-0.8-1.5-1.4-2.4-2l1.9-1.8c2.6,1.7,4.9,3.9,6.8,6.4l-2.4,2.1c-0.6-1-1.3-1.9-2.1-2.8l-8.2,0.6
	v11.2H156v-10.9l-10.6,0.6c-0.1,0.6-0.3,0.7-0.6,0.4l-0.9-3.1l8.1-0.1l1.6-1.1c-2.1-1.5-4.3-2.8-6.5-4l1.6-2l2.3,1.1
	c0.9-0.8,2.5-2.7,4.8-5.7C152.1,244.1,148.6,244.2,145.2,244.2z M153.5,261c0.7,0.4,0.5,0.7-0.4,0.8c-2,2.6-4.4,4.8-7.2,6.4
	l-1.9-2.6c2.6-1.6,5-3.6,6.9-6L153.5,261z M169.6,267.7c-3.3-1.4-6.2-3.7-8.4-6.4l2.4-1.8c2.1,2.4,4.7,4.3,7.7,5.5L169.6,267.7z"/>
<path class="st1" d="M181.6,253.4l4.1-0.3l-1.1-2l2-1c1.2,1.6,2.2,3.4,2.9,5.3l-2.4,1l-0.5-1.3l-2.8,0.3v13.7h-2.5v-13.4L177,256
	c-0.1,0.6-0.3,0.7-0.6,0.4l-0.5-2.8l2.6-0.1l2-2.4c-1.4-1.1-3-2.2-4.7-3.3l1.5-2l1,0.6l3.9-6.3l2.1,1.3c0.6,0.3,0.5,0.5-0.3,0.6
	l-3.9,5.5l1.8,1.4l3.4-5l1.9,1.3c0.7,0.4,0.6,0.6-0.3,0.6L181.6,253.4z M176.3,265.4c0.6-2.5,0.9-5,1-7.5l2.8,0.3
	c0.4,0.3,0.3,0.5-0.3,0.8c-0.1,2.6-0.5,5.2-1.1,7.7L176.3,265.4z M186.9,257.4c1,1.9,1.6,4,1.8,6.2l-2.5,0.6
	c-0.2-2.2-0.7-4.4-1.4-6.4L186.9,257.4z M196.7,247l-2.9,5.3l6.5-0.1c-0.5-0.7-1.2-1.5-2-2.4l1.9-1.5c1.8,1.7,3.3,3.6,4.5,5.7
	l-2.3,1.6l-0.9-1.4l-1.5,0.1v10.6c0,0.7,0.3,1,0.9,1h1.1c0.5,0,0.8-0.4,0.9-1.1l0.1-1.9l2.5,0.8l-0.3,2.1c-0.2,1.7-0.9,2.5-2.1,2.5
	h-3.4c-1.5,0-2.3-0.7-2.3-2.1v-11.6l-3,0.1v5.4c0,4.9-2.3,8-7,9.2l-1-2.6c3.7-0.8,5.5-3,5.5-6.7v-5.2l-1.4,0.1
	c-0.1,0.6-0.3,0.7-0.6,0.4l-0.6-2.9h2l2.5-5.4H189v-2.4h5.9V240h2.4c0.7,0.1,0.7,0.3,0.1,0.8v3.8h7.2v2.4L196.7,247z"/>
</svg>
