<?xml version="1.0" encoding="utf-8"?>
<!-- Generator: Adobe Illustrator 21.0.0, SVG Export Plug-In . SVG Version: 6.00 Build 0)  -->
<svg version="1.1" id="圖層_1" xmlns="http://www.w3.org/2000/svg" xmlns:xlink="http://www.w3.org/1999/xlink" x="0px" y="0px"
	 viewBox="0 0 158.7 157.1" style="enable-background:new 0 0 158.7 157.1;" xml:space="preserve">
<style type="text/css">
	.st0{fill:none;stroke:#FFFFFF;stroke-width:12;stroke-linecap:round;stroke-linejoin:round;}
	.st1{fill:#FFFFFF;}
</style>
<circle class="st0" cx="79.3" cy="78.5" r="69.9"/>
<path class="st1" d="M52.1,90H40.1v18.4c0.2,2.2-0.5,4.3-1.9,6c-1.2,1.3-2.9,2.1-4.7,2c-1.8,0.1-3.6-0.7-4.8-2
	c-1.3-1.7-2-3.8-1.8-5.9V58.4c0-2.9,0.7-5,2-6.2c1.3-1.2,3.4-1.9,6.3-1.9h16.9c3.9-0.1,7.7,0.3,11.5,1.1c2.6,0.7,4.9,1.9,6.9,3.7
	c1.9,1.7,3.5,3.9,4.4,6.3c1,2.7,1.6,5.5,1.5,8.4c0,6.6-2,11.6-6.1,15.1C66.3,88.3,60.2,90,52.1,90z M48.9,60.2h-8.8V80h8.8
	c2.6,0.1,5.2-0.3,7.8-1c1.9-0.5,3.6-1.6,4.8-3.2c1.2-1.7,1.7-3.7,1.6-5.8c0.1-2.6-0.8-5.1-2.5-7C58.7,61.2,54.8,60.2,48.9,60.2z"/>
<path class="st1" d="M129.6,61.2h-14.4v47.2c0.2,2.2-0.5,4.3-1.8,6.1c-1.2,1.3-2.9,2-4.7,2c-1.8,0.1-3.5-0.7-4.8-2
	c-1.4-1.7-2-3.9-1.8-6V61.2H87.8c-1.8,0.2-3.6-0.4-5-1.5c-1.1-1-1.7-2.4-1.6-3.9c0-1.5,0.6-2.9,1.7-3.9c1.4-1.1,3.2-1.6,4.9-1.5
	h41.8c1.8-0.1,3.6,0.4,5,1.5c1.1,1,1.7,2.4,1.7,3.9c0,1.5-0.6,2.9-1.7,3.9C133.2,60.8,131.4,61.3,129.6,61.2z"/>
</svg>
