<svg id="圖層_1" data-name="圖層 1" xmlns="http://www.w3.org/2000/svg" viewBox="0 0 512.4 116.91"><defs><style>.cls-1{fill:none;stroke:#000;stroke-linecap:round;stroke-linejoin:round;stroke-width:6px;}</style></defs><title>headerlogo_sp</title><circle class="cls-1" cx="58.46" cy="58.46" r="55.46"/><path d="M42.77,69.26H33.21V83.85a6.81,6.81,0,0,1-1.48,4.75A4.83,4.83,0,0,1,28,90.21a4.87,4.87,0,0,1-3.8-1.6,6.8,6.8,0,0,1-1.44-4.69V44.19q0-3.45,1.58-4.92t5-1.48H42.77a35.1,35.1,0,0,1,9.14.91,13.62,13.62,0,0,1,5.47,2.92,13.16,13.16,0,0,1,3.5,5,17.57,17.57,0,0,1,1.2,6.64q0,7.88-4.85,11.94T42.77,69.26ZM40.24,45.63h-7V61.38h7a21,21,0,0,0,6.17-.77,7.19,7.19,0,0,0,3.78-2.53,7.55,7.55,0,0,0,1.3-4.61,7.81,7.81,0,0,0-2-5.55Q47.24,45.63,40.24,45.63Z" transform="translate(-5.89 -1.72)"/><path d="M104.26,46.41H92.87V83.85a6.89,6.89,0,0,1-1.44,4.8,4.84,4.84,0,0,1-3.73,1.56,4.91,4.91,0,0,1-3.78-1.58,6.85,6.85,0,0,1-1.46-4.78V46.41H71.07a5.77,5.77,0,0,1-4-1.18,4,4,0,0,1-1.3-3.11A4,4,0,0,1,67.15,39a5.86,5.86,0,0,1,3.92-1.16h33.19a5.84,5.84,0,0,1,4,1.2,4,4,0,0,1,1.32,3.13,4,4,0,0,1-1.34,3.11A5.91,5.91,0,0,1,104.26,46.41Z" transform="translate(-5.89 -1.72)"/><path d="M154.49,50.06a48,48,0,0,1,8,5.39l-2.58,4.45a60.79,60.79,0,0,0-8-6.09Zm5.63,14.77,4,2.34a92.34,92.34,0,0,1-7.5,18q.23,2.34-1.17,1.17l-3.28-4A157.84,157.84,0,0,0,160.11,64.82Zm-2.58-29.06a46.18,46.18,0,0,1,8,5.63l-2.81,4A74.48,74.48,0,0,0,155,39.74Zm6.56,50.16-1.17-4.45,15.94-2.34,1.64-8.2,4.22.7q1.87.24,0,1.41l-1.64,5.39,4.92-.94v3.75q7.73-4.45,14.06-13.83l3,3.52q1.64,1.64-.7,1.41a45.36,45.36,0,0,1-15.7,14.53l-2.34-5.16-20.62,4.22Q164.8,88.26,164.1,85.92Zm11-42.42h-9.37V39.74h9.38V33.65h3.75q1.87.24.23,1.41v4.69h9.38v3.75H179.1v5.63h8.44v3.75H166.68V49.12h8.44ZM186.6,57.09V69.74h-19V57.09Zm-11,20.63-4.45,1.41a35.94,35.94,0,0,0-2.34-6.33l4.45-1.41A24.9,24.9,0,0,1,175.58,77.71Zm7-11.72V60.84h-11V66Zm19.45-25.31a43.67,43.67,0,0,1-12,10.08L188,46.31a46.5,46.5,0,0,0,11.25-10.08L202.54,39Q204.64,40.45,202.07,40.68ZM188.24,63.42A43.2,43.2,0,0,0,199.72,51.7L203,54q1.87,1.41-.47,1.64a35.71,35.71,0,0,1-12.19,12Z" transform="translate(-5.89 -1.72)"/><path d="M217.83,87.09l-4-3.75a175.22,175.22,0,0,0,8.2-18l4.22,2.81q-3.28,9.61-6.8,18.28Q219.93,89.43,217.83,87.09Zm5.86-25.78A43.56,43.56,0,0,0,215,55.45l3-4.92A24.33,24.33,0,0,1,227,56.15Zm1.64-15a30.08,30.08,0,0,0-8.2-5.86l2.81-4.92a26.42,26.42,0,0,1,8.44,5.63Zm3.52,36.8V59.2h6.33V49.35h-7.5V44.9h7.5V34.82h4.45q1.87.24.23,1.41V44.9h8.2v4.45h-8.2V59.2h6.8V79.35H233.53V83.1Zm4.69-20.16V75.6H242V62.95Zm17.34-26h15V83.81q0,3.75-3.75,3.75h-3.75l-.94-5.16h2.81a.83.83,0,0,0,.94-.94V68.57h-6.33q.23,13.6-9.37,19l-2.58-4.69q8-3.52,8-15.94Zm4,4.45v9.38h6.33V41.38Zm0,13.83v8.91h6.33V55.21Z" transform="translate(-5.89 -1.72)"/><path d="M289.83,49.59h6.09V54h-6.09V70.92l7-2.34v4.92L280,79.59q-.47,1.88-1.64.23l-1.41-4.92,8.2-2.34V54h-7.27V49.59h7.27V35.52h4.45q1.87.24.23,1.41ZM313,80.76a282.84,282.84,0,0,0,4.69-29.06l5.16.94q2.11.47,0,1.41-2.35,13.36-5.16,26.72h12.42v4.45H293.82V80.76Zm1.17-45.7V45.13H328v4.45H296.87V45.13h12.66V33.65H314Q315.85,33.89,314.21,35.06ZM305.07,52.4a137.33,137.33,0,0,1,3.75,24.14l-4.92,1.41a128.61,128.61,0,0,0-3.75-24.14Z" transform="translate(-5.89 -1.72)"/><path d="M351.3,49.82H359v4.45H351.3V70.68L359,68.34v4.92l-17.11,6.09q-.47,1.88-1.64.23l-1.41-4.92,7.73-2.34v-18h-7.73V49.82h7.73V35.52h4.45q1.87.24.23,1.41Zm12.89-8H359.5V37.4h25.78l-2.58,15h4.69l.94-1.17,4.22,3-1.17.94a61.54,61.54,0,0,1-9.61,19.22q4,4,11.72,7l-2.81,4.69a35.79,35.79,0,0,1-12-8.44,57,57,0,0,1-12,10.08l-2.34-4.69a48.7,48.7,0,0,0,11.25-8.91,37.09,37.09,0,0,1-7-14.53q-.24,13.13-11.48,27.66l-2.81-4.69q9.84-11,9.84-27.19Zm15.47,0H369.34V52.4H378Zm-8,15a41.3,41.3,0,0,0,6.8,14.06,40.31,40.31,0,0,0,7.27-14.06Z" transform="translate(-5.89 -1.72)"/><path d="M405.73,41.62l-1.17-4.22a265.58,265.58,0,0,0,41.25-3.28l3.28,4.45q.47,1.18-1.64.47-9.38,1.18-19.69,1.88l2.81,1.88q1.64,1.18-1.17,1.41-5.86,6.56-9.14,9.84l5.39,3.28a148.83,148.83,0,0,0,12.19-12.19l4.45,3.28q1.64,1.18-1.17,1.17-7.5,6.56-15.7,13.13l17.11-.94A30.07,30.07,0,0,0,438.07,58l3.52-3.28a48.9,48.9,0,0,1,12.66,12l-4.45,4a25.73,25.73,0,0,0-4-5.16L430.57,66.7V87.56h-4.69V67.17L406.2,68.34Q406,70,405,69l-1.64-5.86,15-.23,3-2.11a98.56,98.56,0,0,0-12.19-7.5l3-3.75,4.22,2.11q2.58-2.34,8.91-10.55Q415.34,41.62,405.73,41.62ZM421.2,73q1.87,1.18-.7,1.41a49.3,49.3,0,0,1-13.36,12l-3.52-4.92a48.13,48.13,0,0,0,12.89-11.25Zm30,12.42a41.74,41.74,0,0,1-15.7-12L439.95,70a37.12,37.12,0,0,0,14.3,10.31Z" transform="translate(-5.89 -1.72)"/><path d="M473.52,58.73l7.73-.47-2.11-3.75,3.75-1.87a35.18,35.18,0,0,1,5.39,9.84l-4.45,1.88L482.89,62l-5.16.47V88h-4.69V62.95l-8,.7q-.24,1.64-1.17.7L463,59.2l4.92-.23,3.75-4.45q-4-3-8.67-6.09l2.81-3.75,1.88,1.17,7.27-11.72,4,2.34q1.64.94-.47,1.17l-7.27,10.31,3.28,2.58,6.33-9.37,3.52,2.34q1.87,1.18-.47,1.17Zm-9.84,22.5a72.63,72.63,0,0,0,1.88-14.06l5.16.47q1.17.7-.47,1.41a68.9,68.9,0,0,1-2.11,14.3Zm19.69-15a28.55,28.55,0,0,1,3.28,11.48L482,78.88a55.88,55.88,0,0,0-2.58-12Zm18.28-19.45-5.39,9.84,12.19-.23q-1.41-1.87-3.75-4.45l3.52-2.81a48.28,48.28,0,0,1,8.44,10.55l-4.22,3-1.64-2.58-2.81.23V80.06c0,1.25.55,1.88,1.64,1.88h2.11q1.41,0,1.64-2.11l.23-3.52,4.69,1.41-.47,4q-.47,4.69-4,4.69H507.5q-4.22,0-4.22-4V60.84l-5.62.23V71.15q0,13.83-13.12,17.11l-1.87-4.92Q493,81.23,493,70.92V61.31l-2.58.23q-.24,1.64-1.17.7l-1.17-5.39h3.75l4.69-10.08h-9.14V42.32h11V33.88h4.45q1.87.24.23,1.41v7h13.36v4.45Z" transform="translate(-5.89 -1.72)"/></svg>