<?xml version="1.0" encoding="utf-8"?>
<!-- Generator: Adobe Illustrator 21.0.0, SVG Export Plug-In . SVG Version: 6.00 Build 0)  -->
<svg version="1.1" id="圖層_1" xmlns="http://www.w3.org/2000/svg" xmlns:xlink="http://www.w3.org/1999/xlink" x="0px" y="0px"
	 viewBox="0 0 230.9 70.3" style="enable-background:new 0 0 230.9 70.3;" xml:space="preserve">
<style type="text/css">
	.st0{fill:none;}
	.st1{font-family:'MicrosoftJhengHeiLight';}
	.st2{font-size:12px;}
</style>
<path d="M7.1,36.9c1.6,0.9,3.2,1.9,4.6,3.1l-1.5,2.6c-1.4-1.3-3-2.5-4.6-3.5L7.1,36.9z M10.3,45.4l2.3,1.3c-1.1,3.6-2.5,7-4.3,10.3
	c0.1,0.9-0.1,1.1-0.7,0.7l-1.9-2.3C7.5,52.2,9,48.8,10.3,45.4L10.3,45.4z M8.8,28.7c1.6,0.9,3.2,2,4.6,3.2l-1.6,2.3
	C10.4,33,8.9,32,7.4,31L8.8,28.7z M12.6,57.5l-0.7-2.6l9.1-1.3l0.9-4.7l2.4,0.4c0.7,0.1,0.7,0.4,0,0.8l-0.9,3.1l2.8-0.5v2.2
	c3-1.7,5.6-4.3,8.1-7.9l1.7,2c0.6,0.6,0.5,0.9-0.4,0.8c-2.3,3.5-5.4,6.3-9,8.3l-1.3-3l-11.8,2.4C13.2,58.4,12.9,58.4,12.6,57.5
	L12.6,57.5z M18.9,33.1h-5.4V31h5.4v-3.5h2.2c0.7,0.1,0.8,0.4,0.1,0.8V31h5.4v2.2h-5.4v3.2H26v2.2h-12v-2.2h4.8L18.9,33.1z
	 M25.5,40.9v7.3H14.6v-7.3H25.5z M19.2,52.8l-2.6,0.8c-0.3-1.3-0.8-2.5-1.3-3.6l2.6-0.8C18.4,50.3,18.9,51.5,19.2,52.8L19.2,52.8z
	 M23.2,46v-3h-6.3v3H23.2z M34.4,31.5c-1.9,2.3-4.3,4.3-6.9,5.8l-1.2-2.6c2.5-1.6,4.6-3.5,6.5-5.8l1.9,1.6
	C35.4,31.1,35.4,31.4,34.4,31.5L34.4,31.5z M26.4,44.6c2.6-1.8,4.8-4.1,6.6-6.7l1.9,1.3c0.7,0.5,0.6,0.9-0.3,0.9
	c-1.7,2.8-4.1,5.2-7,6.9L26.4,44.6z"/>
<path d="M43.4,58.1L41.1,56c1.8-3.4,3.3-6.8,4.7-10.3l2.4,1.6c-1.3,3.7-2.6,7.2-3.9,10.5C44.5,58.9,44.2,59,43.4,58.1z M46.8,43.4
	c-1.5-1.3-3.2-2.4-5-3.4l1.7-2.8c1.9,0.7,3.7,1.8,5.2,3.2L46.8,43.4z M47.7,34.7c-1.4-1.4-3-2.5-4.7-3.4l1.6-2.8
	c1.8,0.8,3.5,1.9,4.8,3.2L47.7,34.7z M49.7,55.9V42.1h3.6v-5.7h-4.3v-2.6h4.3v-5.8h2.6c0.7,0.1,0.8,0.4,0.1,0.8v5h4.7v2.6h-4.7v5.7
	H60v11.6h-7.5v2.2L49.7,55.9z M52.4,44.3v7.3h4.9v-7.3H52.4z M62.4,29.4H71v26.9c0,1.4-0.7,2.2-2.2,2.2h-2.2l-0.5-3h1.6
	c0.3,0,0.5-0.1,0.5-0.4c0,0,0-0.1,0-0.1v-7.4h-3.6c0.1,5.2-1.7,8.8-5.4,10.9l-1.5-2.7c3.1-1.3,4.6-4.4,4.6-9.1L62.4,29.4z
	 M64.7,31.9v5.4h3.6v-5.4L64.7,31.9z M64.7,39.9V45h3.6v-5.1L64.7,39.9z"/>
<path d="M84.7,36.6h3.5v2.5h-3.5v9.7l4-1.3v2.8l-9.7,3.5c-0.2,0.7-0.5,0.8-0.9,0.1l-0.8-2.8l4.7-1.3V39.2h-4.2v-2.5h4.2v-8.1h2.6
	c0.7,0.1,0.8,0.4,0.1,0.8L84.7,36.6z M98,54.5c1.2-5.5,2.1-11.1,2.7-16.7l3,0.5c0.8,0.2,0.8,0.4,0,0.8c-0.9,5.1-1.9,10.2-3,15.3h7.1
	v2.6H87v-2.6H98z M98.7,28.3v5.8h7.9v2.6H88.8v-2.6H96v-6.6h2.6C99.3,27.6,99.4,27.8,98.7,28.3L98.7,28.3z M93.5,38.2
	c1.1,4.5,1.8,9.2,2.2,13.9l-2.8,0.8c-0.3-4.7-1-9.3-2.2-13.9L93.5,38.2z"/>
<path d="M120,36.8h4.4v2.6H120v9.4l4.4-1.3v2.8l-9.8,3.5c-0.2,0.7-0.5,0.8-0.9,0.1l-0.8-2.8l4.4-1.3V39.3h-4.4v-2.6h4.4v-8.2h2.6
	c0.7,0.1,0.8,0.4,0.1,0.8L120,36.8z M127.4,32.2h-2.7v-2.5h14.8l-1.5,8.6h2.7l0.5-0.7l2.4,1.7l-0.7,0.5c-1.2,4-3,7.7-5.5,11
	c1.5,1.5,3.8,2.9,6.7,4l-1.6,2.7c-2.6-1.1-5-2.8-6.9-4.8c-2,2.2-4.3,4.2-6.9,5.8l-1.3-2.7c2.4-1.4,4.6-3.1,6.5-5.1
	c-1.9-2.5-3.3-5.3-4-8.3c-0.1,5-2.3,10.3-6.6,15.9l-1.6-2.7c3.8-4.2,5.6-9.4,5.6-15.6L127.4,32.2z M136.3,32.2h-5.9v6.1h5
	L136.3,32.2z M131.7,40.8c0.8,2.9,2.1,5.7,3.9,8.1c1.9-2.4,3.3-5.1,4.2-8.1L131.7,40.8z"/>
<path d="M151.3,32.1l-0.7-2.4c7.9,0,15.8-0.6,23.7-1.9l1.9,2.6c0.2,0.5-0.1,0.5-0.9,0.3c-3.6,0.5-7.4,0.8-11.3,1.1l1.6,1.1
	c0.6,0.5,0.4,0.7-0.7,0.8c-2.2,2.5-4,4.4-5.2,5.6l3.1,1.9c2.5-2.2,4.8-4.5,7-7l2.6,1.9c0.6,0.5,0.4,0.7-0.7,0.7
	c-2.9,2.5-5.9,5-9,7.5l9.8-0.5c-0.8-0.8-1.6-1.5-2.6-2.2l2-1.9c2.8,1.8,5.3,4.2,7.3,6.9l-2.6,2.3c-0.6-1.1-1.4-2.1-2.3-3l-8.7,0.7
	v12h-2.7V46.7l-11.3,0.7c-0.1,0.6-0.3,0.8-0.7,0.4l-0.9-3.4l8.6-0.1l1.7-1.2c-2.2-1.6-4.6-3-7-4.3l1.7-2.2l2.4,1.2
	c1-0.9,2.7-2.9,5.1-6.1C158.7,32,154.9,32.1,151.3,32.1z M160.1,50.1c0.7,0.5,0.6,0.7-0.4,0.8c-2.1,2.7-4.7,5.1-7.7,6.9l-2-2.8
	c2.8-1.7,5.3-3.9,7.4-6.5L160.1,50.1z M177.3,57.2c-3.5-1.5-6.6-3.9-9-6.9l2.6-2c2.2,2.6,5,4.6,8.2,5.9L177.3,57.2z"/>
<path d="M190.2,41.9l4.4-0.3l-1.2-2.2l2.2-1.1c1.3,1.7,2.4,3.6,3.1,5.6l-2.6,1.1l-0.5-1.4l-3,0.3v14.7h-2.7V44.3l-4.6,0.4
	c-0.1,0.6-0.3,0.8-0.7,0.4l-0.5-3l2.8-0.1l2.2-2.6c-1.5-1.1-3.2-2.3-5-3.5l1.6-2.2l1.1,0.7l4.2-6.7l2.3,1.3c0.6,0.4,0.5,0.6-0.3,0.7
	l-4.2,5.9l1.9,1.5l3.6-5.4l2,1.3c0.7,0.5,0.6,0.7-0.3,0.7L190.2,41.9z M184.5,54.8c0.6-2.6,1-5.4,1.1-8.1l3,0.3
	c0.4,0.3,0.4,0.5-0.3,0.8c-0.1,2.8-0.5,5.5-1.2,8.2L184.5,54.8z M195.8,46.2c1.1,2,1.7,4.3,1.9,6.6l-2.7,0.7
	c-0.2-2.3-0.7-4.7-1.5-6.9L195.8,46.2z M206.3,35l-3.1,5.6l7-0.1c-0.5-0.7-1.3-1.6-2.2-2.6l2-1.6c1.9,1.8,3.5,3.8,4.8,6.1l-2.4,1.7
	l-0.9-1.5l-1.6,0.1v11.3c0,0.7,0.3,1.1,0.9,1.1h1.2c0.5,0,0.9-0.4,0.9-1.2l0.1-2l2.7,0.8l-0.3,2.3c-0.2,1.8-0.9,2.7-2.3,2.7h-3.6
	c-1.6,0-2.4-0.8-2.4-2.3V43.1l-3.2,0.1V49c0,5.3-2.5,8.6-7.5,9.8l-1.1-2.8c4-0.8,5.9-3.2,5.9-7.1v-5.5l-1.5,0.1
	c-0.1,0.6-0.3,0.8-0.7,0.4l-0.7-3.1h2.2l2.7-5.8h-5.2v-2.6h6.3v-4.8h2.6c0.7,0.1,0.8,0.4,0.1,0.8v4h7.7V35L206.3,35z"/>
<rect x="4.7" y="5.2" class="st0" width="186.3" height="27"/>
<text transform="matrix(1 0 0 1 4.6665 15.9051)" class="st1 st2">Suzu All Right Deserve.</text>
</svg>
