<svg id="圖層_1" data-name="圖層 1" xmlns="http://www.w3.org/2000/svg" viewBox="0 0 116.91 505.7"><defs><style>.cls-1{fill:none;stroke:#000;stroke-linecap:round;stroke-linejoin:round;stroke-width:6px;}</style></defs><title>headerlogo</title><circle class="cls-1" cx="58.46" cy="58.46" r="55.46"/><path d="M42.77,69.26H33.21V83.85a6.81,6.81,0,0,1-1.48,4.75A4.83,4.83,0,0,1,28,90.21a4.87,4.87,0,0,1-3.8-1.6,6.8,6.8,0,0,1-1.44-4.69V44.19q0-3.45,1.58-4.92t5-1.48H42.77a35.1,35.1,0,0,1,9.14.91,13.62,13.62,0,0,1,5.47,2.92,13.16,13.16,0,0,1,3.5,5,17.57,17.57,0,0,1,1.2,6.64q0,7.88-4.85,11.94T42.77,69.26ZM40.24,45.63h-7V61.38h7a21,21,0,0,0,6.17-.77,7.19,7.19,0,0,0,3.78-2.53,7.55,7.55,0,0,0,1.3-4.61,7.81,7.81,0,0,0-2-5.55Q47.24,45.63,40.24,45.63Z" transform="translate(-5.89 -1.72)"/><path d="M104.26,46.41H92.87V83.85a6.89,6.89,0,0,1-1.44,4.8,4.84,4.84,0,0,1-3.73,1.56,4.91,4.91,0,0,1-3.78-1.58,6.85,6.85,0,0,1-1.46-4.78V46.41H71.07a5.77,5.77,0,0,1-4-1.18,4,4,0,0,1-1.3-3.11A4,4,0,0,1,67.15,39a5.86,5.86,0,0,1,3.92-1.16h33.19a5.84,5.84,0,0,1,4,1.2,4,4,0,0,1,1.32,3.13,4,4,0,0,1-1.34,3.11A5.91,5.91,0,0,1,104.26,46.41Z" transform="translate(-5.89 -1.72)"/><path d="M41.74,157.28a48,48,0,0,1,8,5.39l-2.58,4.45a60.79,60.79,0,0,0-8-6.09ZM47.37,172l4,2.34a92.34,92.34,0,0,1-7.5,18q.23,2.34-1.17,1.17l-3.28-4A157.84,157.84,0,0,0,47.37,172ZM44.79,143a46.18,46.18,0,0,1,8,5.63l-2.81,4A74.48,74.48,0,0,0,42.21,147Zm6.56,50.16-1.17-4.45,15.94-2.34,1.64-8.2,4.22.7q1.87.24,0,1.41l-1.64,5.39,4.92-.94v3.75Q83,184,89.32,174.62l3,3.52q1.64,1.64-.7,1.41A45.36,45.36,0,0,1,76,194.07l-2.34-5.16L53,193.14Q52.06,195.48,51.35,193.14Zm11-42.42H53V147h9.38v-6.09h3.75q1.87.24.23,1.41V147h9.38v3.75H66.35v5.63h8.44v3.75H53.93v-3.75h8.44Zm11.48,13.59V177h-19V164.31Zm-11,20.63-4.45,1.41A35.94,35.94,0,0,0,56,180l4.45-1.41A24.9,24.9,0,0,1,62.84,184.93Zm7-11.72v-5.16h-11v5.16ZM89.32,147.9a43.67,43.67,0,0,1-12,10.08l-2.11-4.45a46.5,46.5,0,0,0,11.25-10.08l3.28,2.81Q91.9,147.67,89.32,147.9ZM75.49,170.64A43.2,43.2,0,0,0,87,158.92l3.28,2.34q1.87,1.41-.47,1.64a35.71,35.71,0,0,1-12.19,12Z" transform="translate(-5.89 -1.72)"/><path d="M42.68,256.65l-4-3.75a175.17,175.17,0,0,0,8.2-18l4.22,2.81q-3.28,9.61-6.8,18.28Q44.79,259,42.68,256.65Zm5.86-25.78A43.56,43.56,0,0,0,39.87,225l3-4.92a24.33,24.33,0,0,1,8.91,5.63Zm1.64-15A30.09,30.09,0,0,0,42,210l2.81-4.92a26.42,26.42,0,0,1,8.44,5.62Zm3.52,36.8V228.76H60v-9.84h-7.5v-4.45H60V204.38h4.45q1.87.24.23,1.41v8.67h8.2v4.45h-8.2v9.84h6.8v20.16H58.39v3.75Zm4.69-20.16v12.66h8.44V232.51Zm17.34-26h15v46.87q0,3.75-3.75,3.75H83.23L82.29,252H85.1A.83.83,0,0,0,86,251V238.13H79.71q.23,13.6-9.37,19l-2.58-4.69q8-3.52,8-15.94Zm4,4.45v9.38H86v-9.37Zm0,13.83v8.91H86v-8.91Z" transform="translate(-5.89 -1.72)"/><path d="M52.29,281.61h6.09v4.45H52.29v16.88l7-2.34v4.92l-16.87,6.09q-.47,1.88-1.64.23l-1.41-4.92,8.2-2.34V286.06H40.34v-4.45H47.6V267.54h4.45q1.87.24.23,1.41Zm23.2,31.17a282.84,282.84,0,0,0,4.69-29.06l5.16.94q2.11.47,0,1.41Q83,299.42,80.18,312.78H92.6v4.45H56.28v-4.45Zm1.17-45.7v10.08H90.49v4.45H59.32v-4.45H72V265.67h4.45Q78.31,265.91,76.67,267.08Zm-9.14,17.34a137.33,137.33,0,0,1,3.75,24.14L66.35,310a128.6,128.6,0,0,0-3.75-24.14Z" transform="translate(-5.89 -1.72)"/><path d="M51.35,344.18h7.73v4.45H51.35V365l7.73-2.34v4.92L42,373.71q-.47,1.88-1.64.23L38.93,369l7.73-2.34v-18H38.93v-4.45h7.73v-14.3h4.45q1.87.24.23,1.41Zm12.89-8H59.56v-4.45H85.34l-2.58,15h4.69l.94-1.17,4.22,3-1.17.94a61.55,61.55,0,0,1-9.61,19.22q4,4,11.72,7l-2.81,4.69a35.79,35.79,0,0,1-12-8.44,57,57,0,0,1-12,10.08l-2.34-4.69a48.71,48.71,0,0,0,11.25-8.91,37.09,37.09,0,0,1-7-14.53q-.24,13.13-11.48,27.66L54.4,377q9.84-11,9.84-27.19Zm15.47,0H69.4v10.55h8.67Zm-8,15a41.3,41.3,0,0,0,6.8,14.06,40.32,40.32,0,0,0,7.27-14.06Z" transform="translate(-5.89 -1.72)"/><path d="M43.39,398.38l-1.17-4.22a265.64,265.64,0,0,0,41.25-3.28l3.28,4.45q.47,1.17-1.64.47-9.38,1.17-19.69,1.88l2.81,1.88q1.64,1.17-1.17,1.41-5.86,6.56-9.14,9.84l5.39,3.28a148.91,148.91,0,0,0,12.19-12.19l4.45,3.28q1.64,1.17-1.17,1.17-7.5,6.56-15.7,13.13l17.11-.94a30,30,0,0,0-4.45-3.75l3.52-3.28a48.9,48.9,0,0,1,12.66,12l-4.45,4a25.72,25.72,0,0,0-4-5.16l-15.23,1.17v20.86H63.54V423.93L43.85,425.1q-.24,1.64-1.17.7L41,419.94l15-.23,3-2.11a98.5,98.5,0,0,0-12.19-7.5l3-3.75,4.22,2.11q2.58-2.34,8.91-10.55Q53,398.38,43.39,398.38Zm15.47,31.41q1.87,1.17-.7,1.41a49.3,49.3,0,0,1-13.36,12l-3.52-4.92A48.13,48.13,0,0,0,54.17,427Zm30,12.42a41.73,41.73,0,0,1-15.7-12l4.45-3.52a37.12,37.12,0,0,0,14.3,10.31Z" transform="translate(-5.89 -1.72)"/><path d="M48.78,477.89l7.73-.47-2.11-3.75,3.75-1.87a35.18,35.18,0,0,1,5.39,9.84l-4.45,1.88-.94-2.34-5.16.47v25.55H48.31V482.11l-8,.7q-.24,1.64-1.17.7l-.94-5.16,4.92-.23,3.75-4.45q-4-3-8.67-6.09L41,463.83,42.92,465l7.27-11.72,4,2.34q1.64.94-.47,1.17l-7.27,10.31,3.28,2.58L56,460.31l3.52,2.34q1.87,1.17-.47,1.17Zm-9.84,22.5a72.63,72.63,0,0,0,1.88-14.06l5.16.47q1.17.7-.47,1.41a68.9,68.9,0,0,1-2.11,14.3Zm19.69-15a28.55,28.55,0,0,1,3.28,11.48L57.21,498a55.88,55.88,0,0,0-2.58-12ZM76.9,465.94l-5.39,9.84,12.19-.23q-1.41-1.87-3.75-4.45l3.52-2.81a48.28,48.28,0,0,1,8.44,10.55l-4.22,3L86,479.29l-2.81.23v19.69q0,1.88,1.64,1.88H87q1.41,0,1.64-2.11l.23-3.52,4.69,1.41-.47,4q-.47,4.69-4,4.69H82.76q-4.22,0-4.22-4V480l-5.62.23v10.08q0,13.83-13.12,17.11l-1.87-4.92q10.31-2.11,10.31-12.42v-9.61l-2.58.23q-.24,1.64-1.17.7L63.31,476h3.75l4.69-10.08H62.6v-4.45h11V453h4.45q1.87.24.23,1.41v7H91.67v4.45Z" transform="translate(-5.89 -1.72)"/></svg>