<?xml version="1.0" encoding="utf-8"?>
<!-- Generator: Adobe Illustrator 21.0.0, SVG Export Plug-In . SVG Version: 6.00 Build 0)  -->
<svg version="1.1" id="圖層_1" xmlns="http://www.w3.org/2000/svg" xmlns:xlink="http://www.w3.org/1999/xlink" x="0px" y="0px"
	 viewBox="0 0 580.9 575" style="enable-background:new 0 0 580.9 575;" xml:space="preserve">
<style type="text/css">
	.st0{fill:none;stroke:#F5F6F5;stroke-width:14;stroke-linecap:round;stroke-linejoin:round;}
	.st1{fill:#F5F6F5;}
</style>
<circle class="st0" cx="290.4" cy="287.5" r="265"/>
<path class="st1" d="M187.2,330.9h-45.6v69.8c0.6,8.2-1.9,16.3-7,22.7c-4.5,5.1-11,8-17.9,7.9c-6.9,0.3-13.5-2.5-18.2-7.6
	c-5.1-6.4-7.6-14.5-7-22.6V211.1c0-11,2.5-18.8,7.6-23.6c5.1-4.8,13.1-7.1,23.9-7.1h64c14.7-0.5,29.4,1,43.7,4.3
	c9.7,2.6,18.6,7.4,26.1,14c7.4,6.5,13.1,14.7,16.7,23.9c4,10.1,5.9,20.9,5.8,31.8c0,25.1-7.7,44.1-23.2,57.1
	S217.9,330.9,187.2,330.9z M175.2,218h-33.4v75.3h33.4c10,0.2,19.9-1,29.5-3.7c7.2-2,13.5-6.2,18.1-12.1c4.4-6.5,6.6-14.2,6.2-22
	c0.4-9.7-3-19.3-9.6-26.5C212.3,221.6,197.5,218,175.2,218z"/>
<path class="st1" d="M481.1,221.7h-54.4v178.9c0.7,8.2-1.8,16.4-6.9,22.9c-4.5,5-10.9,7.8-17.6,7.6c-6.8,0.2-13.4-2.5-18.1-7.5
	c-5.1-6.5-7.6-14.6-7-22.8V221.7h-54.7c-6.9,0.6-13.7-1.4-19.1-5.6c-4.2-3.8-6.4-9.2-6.2-14.9c-0.2-5.8,2.2-11.4,6.6-15.1
	c5.4-4,12-6,18.7-5.5h158.6c6.9-0.5,13.7,1.5,19.1,5.7c4.2,3.8,6.5,9.3,6.3,15c0.2,5.7-2.1,11.1-6.3,15
	C494.8,220.3,488,222.3,481.1,221.7z"/>
</svg>
