<svg id="圖層_1" data-name="圖層 1" xmlns="http://www.w3.org/2000/svg" viewBox="0 0 116.91 116.91"><defs><style>.cls-1{fill:none;stroke:#000;stroke-linecap:round;stroke-linejoin:round;stroke-width:6px;}</style></defs><title>loadinglogo</title><circle class="cls-1" cx="58.46" cy="58.46" r="55.46"/><path d="M37,68H27.46V82.6A6.81,6.81,0,0,1,26,87.35,4.83,4.83,0,0,1,22.26,89a4.87,4.87,0,0,1-3.8-1.6A6.8,6.8,0,0,1,17,82.67V42.94Q17,39.5,18.6,38t5-1.48H37a35.1,35.1,0,0,1,9.14.91,13.62,13.62,0,0,1,5.47,2.92,13.16,13.16,0,0,1,3.5,5A17.57,17.57,0,0,1,56.32,52q0,7.88-4.85,11.94T37,68ZM34.49,44.38h-7V60.13h7a21,21,0,0,0,6.17-.77,7.19,7.19,0,0,0,3.78-2.53,7.55,7.55,0,0,0,1.3-4.61,7.81,7.81,0,0,0-2-5.55Q41.49,44.38,34.49,44.38Z" transform="translate(-0.14 -0.47)"/><path d="M98.51,45.16H87.12V82.6a6.89,6.89,0,0,1-1.44,4.8A4.84,4.84,0,0,1,82,89a4.91,4.91,0,0,1-3.78-1.58,6.85,6.85,0,0,1-1.46-4.78V45.16H65.32a5.77,5.77,0,0,1-4-1.18,4,4,0,0,1-1.3-3.11A4,4,0,0,1,61.4,37.7a5.86,5.86,0,0,1,3.92-1.16H98.51a5.84,5.84,0,0,1,4,1.2,4,4,0,0,1,1.32,3.13A4,4,0,0,1,102.52,44,5.91,5.91,0,0,1,98.51,45.16Z" transform="translate(-0.14 -0.47)"/></svg>