<?xml version="1.0" encoding="utf-8"?>
<!-- Generator: Adobe Illustrator 21.0.0, SVG Export Plug-In . SVG Version: 6.00 Build 0)  -->
<svg version="1.1" id="圖層_1" xmlns="http://www.w3.org/2000/svg" xmlns:xlink="http://www.w3.org/1999/xlink" x="0px" y="0px"
	 viewBox="0 0 637.4 280.1" style="enable-background:new 0 0 637.4 280.1;" xml:space="preserve">
<style type="text/css">
	.st0{fill:#EBEBEB;}
</style>
<g>
	<path class="st0" d="M52.4,14.5h10.7l28.5,76.4c1.4,3.8,2.8,6.4,4.2,7.6s3.3,1.9,5.7,1.9h1.4v5.5H70.4v-5.5c1-0.1,2.1-0.1,3.1-0.1
		c2.1,0,3.5-0.2,4.1-0.7c1.3-0.8,1.9-1.9,1.9-3.1c0-0.9-0.6-3.2-1.8-6.8L71.6,72H38.5l-7.1,19.8c-0.7,2.1-1.1,3.5-1.1,4.3
		c0,0.9,0.2,1.6,0.7,2.3c0.5,0.7,1.1,1.1,1.9,1.5c0.8,0.3,2.1,0.5,3.8,0.5c1.2,0,2.1,0,2.9,0.1v5.5H12.2v-5.5c2.5,0,4.4-0.3,5.5-0.8
		c1.1-0.5,2.1-1.3,2.9-2.4c0.8-1.1,1.9-3.5,3.3-7L52.4,14.5z M40.8,65.6H69L55,26.3L40.8,65.6z"/>
	<path class="st0" d="M107,20.7v-5.4c2.9-0.2,5.7-0.7,8.4-1.6c2.7-0.8,5.7-2.1,9-3.9h4.8v40c3.8-2.9,7.8-5,11.9-6.5
		s8.2-2.2,12.5-2.2c4.9,0,9.4,1.3,13.6,3.9c4.2,2.6,7.4,6.3,9.8,11.1c2.4,4.8,3.6,10.4,3.6,16.9c0,10.2-3,18.6-9,25.2
		c-5.5,6.1-12.6,9.2-21.1,9.2c-5.1,0-9.7-1.1-13.7-3.2c-3-1.6-5.9-4-8.7-7.3l-3.6,8.9h-6.1V20.7H107z M129.2,56.2v25.2
		c0,4,0.3,6.8,0.9,8.4c0.6,1.6,1.7,3.2,3.5,4.9c1.8,1.7,3.8,3,6.2,4c2.4,1,4.8,1.5,7.4,1.5c3.9,0,7.4-1,10.6-3.1
		c3.2-2.1,5.7-5.1,7.5-9.1c1.8-4,2.8-8.8,2.8-14.5c0-7.9-1.9-14.2-5.8-19c-3.1-3.9-7.4-5.9-13-5.9c-2.9,0-5.8,0.5-8.8,1.6
		C137.4,51.3,133.7,53.3,129.2,56.2z"/>
	<path class="st0" d="M224.5,41.1c6.4,0,12,1.3,16.7,4c4.7,2.7,8.4,6.6,11.1,11.7c2.7,5.1,4.1,10.9,4.1,17.5
		c0,6.6-1.4,12.4-4.2,17.5c-2.8,5.1-6.6,9-11.3,11.7c-4.8,2.7-10.5,4-17.1,4c-10.6,0-18.5-3.3-23.8-9.9c-5.3-6.6-8-14.4-8-23.3
		c0-6.5,1.4-12.3,4.1-17.3c2.8-5,6.6-9,11.6-11.7C212.6,42.5,218.2,41.1,224.5,41.1z M224,47.4c-5,0-9.2,2-12.6,5.9
		c-4.4,4.9-6.6,12-6.6,21.4c0,9,1.9,15.9,5.6,20.6c3.4,4.2,7.9,6.3,13.7,6.3c3.7,0,7-1,9.9-2.9c2.9-2,5.3-5.1,7-9.4
		c1.8-4.3,2.7-9.4,2.7-15.2c0-5.7-1-10.8-2.9-15.3c-1.5-3.6-3.7-6.4-6.7-8.4C231.1,48.4,227.7,47.4,224,47.4z"/>
	<path class="st0" d="M263,42.7l24.8-1v42.2c0,3.7,0.5,6.7,1.5,8.8c1,2.2,2.6,3.9,4.7,5.1c2.1,1.2,4.6,1.8,7.4,1.8
		c3.5,0,7.5-0.9,11.9-2.8c4.4-1.9,8.9-4.7,13.3-8.4V57.9c0-3.2-0.2-5.4-0.7-6.4c-0.5-1-1.3-1.8-2.6-2.4c-1.2-0.6-3.1-0.9-5.8-0.9
		h-4.8v-5.5l24.8-1v48.9c0,3.1,0.3,5.3,0.8,6.5c0.5,1.2,1.3,2.1,2.3,2.6c1,0.5,3.1,0.8,6.2,0.8h2v5.5l-21.8,1.1V94.9
		c-6,4.8-11.2,8.1-15.7,9.9c-4.5,1.8-9,2.7-13.6,2.7c-3.4,0-6.4-0.5-8.9-1.4c-2.5-0.9-4.7-2.3-6.6-4.1s-3.4-4-4.4-6.6
		c-1-2.6-1.5-5.3-1.5-8.3V57.3c0-2.7-0.2-4.5-0.7-5.6c-0.5-1.1-1.3-1.9-2.4-2.6c-1.1-0.6-2.6-1-4.6-1h-6V42.7z"/>
	<path class="st0" d="M375.1,20.4h4.7v22.3h19.5v6.6h-19.5v39.5c0,3.4,0.3,5.8,0.9,7.2c0.6,1.4,1.6,2.6,3,3.5c1.4,0.9,3,1.4,4.8,1.4
		c4.2,0,8.7-1.9,13.8-5.6v6.4c-5.7,3.9-11.5,5.8-17.4,5.8c-3.3,0-6.3-0.7-9-2.2c-2.7-1.5-4.5-3.2-5.5-5.2c-1-2-1.5-5.5-1.5-10.5
		V49.2h-11.5v-5.5c3.7-0.8,6.7-2.1,8.9-3.9c2.3-1.7,4.1-4,5.5-6.8C373.1,30.2,374.3,26,375.1,20.4z"/>
</g>
<g>
	<path class="st0" d="M190.8,156.4h43.5c10.6,0,17.9,0.5,21.8,1.4c5.8,1.4,10.4,3.9,13.8,7.6c3.4,3.7,5.1,8.1,5.1,13.2
		c0,3.7-0.9,7-2.7,10c-1.8,2.9-4.4,5.5-7.8,7.6c-2.2,1.4-5.2,2.5-8.9,3.5c4.8,0.9,8.4,1.9,10.9,3.1c3.7,1.8,6.7,4.5,8.9,7.9
		c2.2,3.4,3.3,7.3,3.3,11.5c0,4.2-1.1,8-3.2,11.5c-2.1,3.5-5.2,6.4-9.1,8.7c-3.9,2.3-8.5,3.7-13.7,4.4c-5.2,0.6-10.6,1-16.1,1h-45.8
		v-5.5h3.1c3,0,5-0.5,6.1-1.4c1.6-1.3,2.4-3.4,2.4-6.3v-63.5c0-3-0.2-5-0.7-6.1c-0.5-1.1-1.2-1.9-2.2-2.4c-1-0.5-2.8-0.7-5.6-0.7
		h-3.1V156.4z M214.6,163.7v33.5h16.7c7.8,0,13.2-0.4,16.1-1.1c4.5-1.2,8-3.2,10.3-6c2.4-2.8,3.6-6.5,3.6-10.9
		c0-3.8-1.1-6.9-3.2-9.4c-2.2-2.5-5.1-4.2-8.7-5.1c-2.4-0.6-7.3-0.9-14.7-0.9H214.6z M214.6,203.5v30c0,3,0.1,4.8,0.4,5.4
		c0.3,0.8,1,1.3,2.1,1.6c0.7,0.2,2.8,0.3,6.3,0.3h8.9c8.8,0,15.1-0.5,18.9-1.5c3.8-1,7-3.1,9.7-6.2c2.7-3.2,4-7,4-11.4
		c0-3.8-1.1-7.1-3.2-10c-2.2-2.9-5.2-5-9-6.3c-3.8-1.3-10.6-1.9-20.3-1.9H214.6z"/>
	<path class="st0" d="M322.6,183c6.4,0,12,1.3,16.7,4c4.7,2.7,8.4,6.6,11.1,11.7c2.7,5.1,4.1,10.9,4.1,17.5c0,6.6-1.4,12.4-4.2,17.5
		c-2.8,5.1-6.6,9-11.3,11.7s-10.5,4-17.1,4c-10.6,0-18.5-3.3-23.8-9.9c-5.3-6.6-8-14.4-8-23.3c0-6.5,1.4-12.3,4.1-17.3
		c2.8-5,6.6-9,11.6-11.7C310.7,184.4,316.3,183,322.6,183z M322,189.4c-5,0-9.2,2-12.6,5.9c-4.4,4.9-6.6,12-6.6,21.4
		c0,9,1.9,15.9,5.6,20.6c3.4,4.2,7.9,6.3,13.7,6.3c3.7,0,7-1,9.9-2.9c2.9-2,5.3-5.1,7-9.4c1.8-4.3,2.7-9.4,2.7-15.2
		c0-5.7-1-10.8-2.9-15.3c-1.5-3.6-3.7-6.4-6.7-8.4C329.2,190.4,325.8,189.4,322,189.4z"/>
	<path class="st0" d="M411.8,209.9l0-7.1c0-4.8-1.4-8.3-4.1-10.4c-2.7-2.1-6.5-3.1-11.5-3.1c-2.5,0-4.6,0.3-6.4,0.9
		c-1.8,0.6-3.3,1.4-4.4,2.4c-1.1,1-1.9,2.2-2.5,3.5c-0.2,0.5-0.7,2.3-1.6,5.6c-1,3.9-3,5.9-6.1,5.9c-1.7,0-3.2-0.6-4.2-1.7
		c-1.1-1.2-1.6-2.7-1.6-4.7c0-2.9,1.1-5.7,3.2-8.5c2.1-2.8,5.4-5.1,9.8-6.9c4.4-1.8,9.6-2.7,15.6-2.7c5.6,0,10.4,0.9,14.4,2.6
		c4,1.7,6.9,4.2,8.8,7.4c1.3,2.2,2,6.3,2,12.2v25.2c0,3.6,0.1,5.9,0.3,7c0.5,1.9,1.3,3.3,2.5,4.2c1.2,0.9,2.8,1.4,4.7,1.4
		c2,0,4.4-0.5,7.2-1.4v5.7c-3.6,1-6.9,1.6-9.8,1.6c-3.1,0-5.7-0.4-7.8-1.3c-2.1-0.9-3.9-2.2-5.2-3.8c-1.4-1.7-2.2-3.7-2.6-6
		c-5.2,4.1-10,7-14.2,8.7c-4.2,1.7-8.5,2.5-12.8,2.5c-6,0-10.9-1.6-14.7-4.9c-3.8-3.3-5.6-7.1-5.6-11.5c0-2.7,0.7-5.2,2.1-7.6
		c1.4-2.4,3.5-4.5,6.3-6.4c2.8-1.8,7.3-3.5,13.3-4.8C392.7,212.3,401.1,211,411.8,209.9z M411.8,215.6c-10.1,1.5-16.4,2.5-18.8,3.1
		c-4.8,1.1-8.2,2.3-10.2,3.6c-2.1,1.3-3.5,2.7-4.4,4.2c-0.9,1.5-1.3,3.1-1.3,4.8s0.5,3.4,1.5,4.9c1,1.6,2.4,2.9,4.2,3.8
		c1.8,0.9,3.7,1.4,5.7,1.4c2.8,0,6.1-0.7,9.6-2c3.6-1.4,8.2-4,13.8-7.9L411.8,215.6z"/>
	<path class="st0" d="M459.8,162.3h4.7v22.3h19.5v6.6h-19.5v39.5c0,3.4,0.3,5.8,0.9,7.2s1.6,2.6,3,3.5c1.4,0.9,3,1.4,4.8,1.4
		c4.2,0,8.7-1.9,13.8-5.6v6.4c-5.7,3.9-11.5,5.8-17.4,5.8c-3.3,0-6.3-0.7-9-2.2c-2.7-1.5-4.5-3.2-5.5-5.2c-1-2-1.5-5.5-1.5-10.5
		v-40.3H442v-5.5c3.7-0.8,6.7-2.1,8.9-3.9c2.3-1.7,4.1-4,5.5-6.8C457.8,172.2,458.9,168,459.8,162.3z"/>
</g>
</svg>
