<?xml version="1.0" encoding="utf-8"?>
<!-- Generator: Adobe Illustrator 21.0.0, SVG Export Plug-In . SVG Version: 6.00 Build 0)  -->
<svg version="1.1" id="圖層_1" xmlns="http://www.w3.org/2000/svg" xmlns:xlink="http://www.w3.org/1999/xlink" x="0px" y="0px"
	 viewBox="0 0 383.4 144.6" style="enable-background:new 0 0 383.4 144.6;" xml:space="preserve">
<style type="text/css">
	.st0{fill:#EBEBEB;}
</style>
<g>
	<path class="st0" d="M26.6,9.6h4.8l12.7,34.2c0.6,1.7,1.3,2.9,1.9,3.4s1.5,0.8,2.6,0.8h0.6v2.5H34.7V48c0.5,0,0.9-0.1,1.4-0.1
		c0.9,0,1.6-0.1,1.8-0.3c0.6-0.4,0.8-0.8,0.8-1.4c0-0.4-0.3-1.4-0.8-3l-2.7-7.9H20.4l-3.2,8.8c-0.3,0.9-0.5,1.6-0.5,1.9
		c0,0.4,0.1,0.7,0.3,1s0.5,0.5,0.8,0.7s0.9,0.2,1.7,0.2c0.5,0,1,0,1.3,0v2.5H8.7V48c1.1,0,1.9-0.1,2.4-0.3c0.5-0.2,0.9-0.6,1.3-1.1
		s0.9-1.5,1.5-3.1L26.6,9.6z M21.5,32.4h12.6l-6.3-17.6L21.5,32.4z"/>
	<path class="st0" d="M51.1,12.3V9.9c1.3-0.1,2.5-0.3,3.7-0.7c1.2-0.4,2.6-1,4-1.8H61v17.9c1.7-1.3,3.5-2.3,5.3-2.9s3.7-1,5.6-1
		c2.2,0,4.2,0.6,6.1,1.8c1.9,1.2,3.3,2.8,4.4,5c1.1,2.1,1.6,4.7,1.6,7.6c0,4.6-1.3,8.3-4,11.3c-2.5,2.7-5.6,4.1-9.4,4.1
		c-2.3,0-4.3-0.5-6.1-1.4c-1.3-0.7-2.6-1.8-3.9-3.3l-1.6,4h-2.7V12.3H51.1z M61,28.2v11.3c0,1.8,0.1,3,0.4,3.7
		c0.3,0.7,0.8,1.4,1.6,2.2c0.8,0.8,1.7,1.3,2.8,1.8c1.1,0.4,2.2,0.7,3.3,0.7c1.7,0,3.3-0.5,4.7-1.4c1.4-0.9,2.5-2.3,3.4-4.1
		c0.8-1.8,1.2-4,1.2-6.5c0-3.5-0.9-6.4-2.6-8.5c-1.4-1.8-3.3-2.6-5.8-2.6c-1.3,0-2.6,0.2-3.9,0.7C64.7,26,63,26.9,61,28.2z"/>
	<path class="st0" d="M103.6,21.5c2.9,0,5.4,0.6,7.5,1.8c2.1,1.2,3.8,2.9,5,5.2c1.2,2.3,1.8,4.9,1.8,7.8s-0.6,5.5-1.9,7.8
		c-1.2,2.3-2.9,4-5.1,5.2s-4.7,1.8-7.7,1.8c-4.7,0-8.3-1.5-10.6-4.4c-2.4-2.9-3.6-6.4-3.6-10.4c0-2.9,0.6-5.5,1.8-7.7s3-4,5.2-5.2
		C98.3,22.1,100.8,21.5,103.6,21.5z M103.4,24.3c-2.2,0-4.1,0.9-5.7,2.6c-2,2.2-2.9,5.4-2.9,9.6c0,4,0.8,7.1,2.5,9.2
		c1.5,1.9,3.5,2.8,6.1,2.8c1.7,0,3.1-0.4,4.4-1.3c1.3-0.9,2.3-2.3,3.1-4.2c0.8-1.9,1.2-4.2,1.2-6.8c0-2.5-0.4-4.8-1.3-6.8
		c-0.7-1.6-1.7-2.8-3-3.7C106.5,24.7,105,24.3,103.4,24.3z"/>
	<path class="st0" d="M120.8,22.2l11.1-0.4v18.9c0,1.7,0.2,3,0.7,4c0.5,1,1.2,1.7,2.1,2.3c0.9,0.5,2.1,0.8,3.3,0.8
		c1.6,0,3.3-0.4,5.3-1.3c2-0.8,4-2.1,5.9-3.8V29c0-1.4-0.1-2.4-0.3-2.8c-0.2-0.4-0.6-0.8-1.1-1.1c-0.5-0.3-1.4-0.4-2.6-0.4h-2.1
		v-2.5l11.1-0.4v21.9c0,1.4,0.1,2.4,0.4,2.9c0.2,0.5,0.6,0.9,1,1.1c0.5,0.2,1.4,0.3,2.8,0.3h0.9v2.5l-9.7,0.5v-5.4
		c-2.7,2.1-5,3.6-7,4.4s-4,1.2-6.1,1.2c-1.5,0-2.8-0.2-4-0.6c-1.1-0.4-2.1-1-3-1.8s-1.5-1.8-1.9-3c-0.4-1.2-0.7-2.4-0.7-3.7V28.7
		c0-1.2-0.1-2-0.3-2.5c-0.2-0.5-0.6-0.9-1.1-1.1c-0.5-0.3-1.2-0.4-2-0.4h-2.7V22.2z"/>
	<path class="st0" d="M170.9,12.2h2.1v10h8.7v2.9H173v17.7c0,1.5,0.1,2.6,0.4,3.2s0.7,1.2,1.3,1.6c0.6,0.4,1.3,0.6,2.1,0.6
		c1.9,0,3.9-0.8,6.2-2.5v2.8c-2.6,1.7-5.2,2.6-7.8,2.6c-1.5,0-2.8-0.3-4-1c-1.2-0.7-2-1.4-2.5-2.3c-0.4-0.9-0.7-2.5-0.7-4.7v-18H163
		v-2.5c1.6-0.4,3-0.9,4-1.7c1-0.8,1.8-1.8,2.5-3C170,16.6,170.6,14.7,170.9,12.2z"/>
</g>
<rect x="103.4" y="210.7" style="fill:none;" width="269" height="129"/>
<text transform="matrix(1 0 0 1 103.4307 261.0969)" class="st0" style="font-family:'BookmanOldStyle'; font-size:60px;">Car</text>
<g>
	<path class="st0" d="M117.8,80.2h20.1c4.9,0,8.3,0.2,10.1,0.7c2.7,0.6,4.8,1.8,6.4,3.5c1.6,1.7,2.4,3.7,2.4,6.1
		c0,1.7-0.4,3.3-1.2,4.6c-0.8,1.4-2,2.5-3.6,3.5c-1,0.6-2.4,1.2-4.1,1.6c2.2,0.4,3.9,0.9,5,1.5c1.7,0.8,3.1,2.1,4.1,3.6
		c1,1.6,1.5,3.4,1.5,5.3c0,1.9-0.5,3.7-1.5,5.3c-1,1.6-2.4,3-4.2,4c-1.8,1.1-3.9,1.7-6.3,2c-2.4,0.3-4.9,0.4-7.4,0.4h-21.2V120h1.4
		c1.4,0,2.3-0.2,2.8-0.6c0.7-0.6,1.1-1.6,1.1-2.9V87c0-1.4-0.1-2.3-0.3-2.8c-0.2-0.5-0.6-0.9-1-1.1c-0.4-0.2-1.3-0.3-2.6-0.3h-1.4
		V80.2z M128.8,83.6v15.5h7.7c3.6,0,6.1-0.2,7.4-0.5c2.1-0.5,3.7-1.5,4.8-2.8s1.7-3,1.7-5.1c0-1.7-0.5-3.2-1.5-4.4
		c-1-1.2-2.3-2-4-2.4c-1.1-0.3-3.4-0.4-6.8-0.4H128.8z M128.8,102v13.9c0,1.4,0.1,2.2,0.2,2.5c0.2,0.4,0.5,0.6,1,0.8
		c0.3,0.1,1.3,0.2,2.9,0.2h4.1c4.1,0,7-0.2,8.7-0.7c1.7-0.5,3.2-1.4,4.5-2.9c1.2-1.5,1.8-3.2,1.8-5.3c0-1.7-0.5-3.3-1.5-4.6
		c-1-1.3-2.4-2.3-4.2-2.9c-1.8-0.6-4.9-0.9-9.4-0.9H128.8z"/>
	<path class="st0" d="M178.8,92.5c3,0,5.5,0.6,7.7,1.8c2.2,1.2,3.9,3,5.1,5.4c1.3,2.4,1.9,5.1,1.9,8.1s-0.6,5.7-1.9,8.1
		c-1.3,2.4-3,4.2-5.2,5.4c-2.2,1.2-4.9,1.9-7.9,1.9c-4.9,0-8.6-1.5-11-4.6c-2.5-3.1-3.7-6.6-3.7-10.8c0-3,0.6-5.7,1.9-8
		s3.1-4.1,5.4-5.4C173.3,93.2,175.9,92.5,178.8,92.5z M178.6,95.5c-2.3,0-4.3,0.9-5.9,2.7c-2,2.3-3,5.6-3,9.9c0,4.2,0.9,7.3,2.6,9.5
		c1.6,1.9,3.7,2.9,6.3,2.9c1.7,0,3.2-0.5,4.6-1.4c1.3-0.9,2.4-2.4,3.3-4.4c0.8-2,1.2-4.3,1.2-7c0-2.6-0.4-5-1.3-7.1
		c-0.7-1.7-1.7-2.9-3.1-3.9C181.9,95.9,180.3,95.5,178.6,95.5z"/>
	<path class="st0" d="M220.1,105l0-3.3c0-2.2-0.6-3.8-1.9-4.8c-1.3-1-3-1.4-5.3-1.4c-1.1,0-2.1,0.1-3,0.4s-1.5,0.6-2.1,1.1
		c-0.5,0.5-0.9,1-1.1,1.6c-0.1,0.2-0.3,1.1-0.7,2.6c-0.5,1.8-1.4,2.7-2.8,2.7c-0.8,0-1.5-0.3-2-0.8c-0.5-0.5-0.7-1.3-0.7-2.2
		c0-1.3,0.5-2.6,1.5-3.9c1-1.3,2.5-2.3,4.5-3.2c2-0.8,4.4-1.3,7.2-1.3c2.6,0,4.8,0.4,6.6,1.2c1.8,0.8,3.2,1.9,4.1,3.4
		c0.6,1,0.9,2.9,0.9,5.6v11.7c0,1.7,0,2.7,0.2,3.2c0.2,0.9,0.6,1.5,1.2,2c0.6,0.4,1.3,0.7,2.2,0.7c0.9,0,2-0.2,3.3-0.6v2.6
		c-1.7,0.5-3.2,0.7-4.5,0.7c-1.4,0-2.6-0.2-3.6-0.6c-1-0.4-1.8-1-2.4-1.8c-0.6-0.8-1-1.7-1.2-2.8c-2.4,1.9-4.6,3.2-6.6,4
		c-2,0.8-3.9,1.2-5.9,1.2c-2.8,0-5.1-0.8-6.8-2.3c-1.7-1.5-2.6-3.3-2.6-5.3c0-1.2,0.3-2.4,1-3.5s1.6-2.1,2.9-2.9s3.4-1.6,6.1-2.2
		C211.3,106.1,215.1,105.5,220.1,105z M220.1,107.6c-4.7,0.7-7.6,1.2-8.7,1.4c-2.2,0.5-3.8,1.1-4.7,1.7c-1,0.6-1.6,1.3-2,2
		c-0.4,0.7-0.6,1.4-0.6,2.2s0.2,1.6,0.7,2.3c0.5,0.7,1.1,1.3,1.9,1.7c0.8,0.4,1.7,0.6,2.6,0.6c1.3,0,2.8-0.3,4.5-0.9
		s3.8-1.8,6.4-3.7L220.1,107.6z"/>
	<path class="st0" d="M242.3,83h2.2v10.3h9v3h-9v18.3c0,1.6,0.1,2.7,0.4,3.3c0.3,0.7,0.7,1.2,1.4,1.6c0.7,0.4,1.4,0.6,2.2,0.6
		c1.9,0,4-0.9,6.4-2.6v2.9c-2.7,1.8-5.3,2.7-8.1,2.7c-1.5,0-2.9-0.3-4.2-1c-1.2-0.7-2.1-1.5-2.6-2.4s-0.7-2.5-0.7-4.9V96.3H234v-2.5
		c1.7-0.4,3.1-1,4.1-1.8c1-0.8,1.9-1.9,2.5-3.2C241.4,87.5,241.9,85.6,242.3,83z"/>
</g>
</svg>
