<?xml version="1.0" encoding="utf-8"?>
<!-- Generator: Adobe Illustrator 21.0.0, SVG Export Plug-In . SVG Version: 6.00 Build 0)  -->
<svg version="1.1" id="圖層_1" xmlns="http://www.w3.org/2000/svg" xmlns:xlink="http://www.w3.org/1999/xlink" x="0px" y="0px"
	 viewBox="0 0 611.3 150.1" style="enable-background:new 0 0 611.3 150.1;" xml:space="preserve">
<style type="text/css">
	.st0{fill:#EBEBEB;}
</style>
<g>
	<path class="st0" d="M41.5,37.2h9.6l25.4,68.3c1.2,3.4,2.5,5.7,3.8,6.8c1.3,1.1,3,1.7,5.1,1.7h1.3v4.9H57.6V114
		c0.9-0.1,1.9-0.1,2.8-0.1c1.9,0,3.1-0.2,3.7-0.6c1.1-0.7,1.7-1.7,1.7-2.8c0-0.8-0.5-2.8-1.6-6l-5.4-15.8H29.1l-6.4,17.7
		c-0.7,1.8-1,3.1-1,3.8c0,0.8,0.2,1.5,0.6,2.1s1,1,1.7,1.3s1.8,0.4,3.4,0.4c1.1,0,1.9,0,2.6,0.1v4.9H5.6V114c2.3,0,3.9-0.2,4.9-0.7
		c1-0.4,1.9-1.2,2.6-2.2c0.7-1,1.7-3.1,2.9-6.3L41.5,37.2z M31.2,82.9h25.2L43.9,47.7L31.2,82.9z"/>
	<path class="st0" d="M90.4,42.8v-4.9c2.6-0.2,5.1-0.7,7.5-1.4c2.4-0.7,5.1-1.9,8.1-3.5h4.3v35.7c3.4-2.6,7-4.5,10.6-5.8
		S128.2,61,132,61c4.4,0,8.4,1.2,12.1,3.5c3.7,2.3,6.6,5.7,8.8,9.9c2.1,4.3,3.2,9.3,3.2,15.1c0,9.1-2.7,16.7-8,22.6
		c-5,5.5-11.3,8.2-18.9,8.2c-4.6,0-8.7-1-12.2-2.9c-2.7-1.4-5.2-3.6-7.7-6.5l-3.2,8h-5.4V42.8H90.4z M110.2,74.5v22.6
		c0,3.6,0.3,6,0.8,7.5c0.5,1.4,1.6,2.9,3.1,4.4c1.6,1.5,3.4,2.7,5.6,3.6c2.1,0.9,4.3,1.3,6.6,1.3c3.5,0,6.6-0.9,9.5-2.8
		c2.9-1.8,5.1-4.5,6.7-8.1c1.6-3.6,2.5-7.9,2.5-12.9c0-7.1-1.7-12.7-5.2-17c-2.8-3.5-6.7-5.3-11.7-5.3c-2.6,0-5.2,0.5-7.9,1.4
		C117.6,70.1,114.2,71.9,110.2,74.5z"/>
	<path class="st0" d="M195.4,61c5.7,0,10.7,1.2,14.9,3.6c4.2,2.4,7.5,5.9,9.9,10.4c2.4,4.6,3.6,9.8,3.6,15.6s-1.2,11.1-3.7,15.6
		c-2.5,4.6-5.9,8.1-10.1,10.5s-9.4,3.6-15.3,3.6c-9.5,0-16.6-2.9-21.3-8.8c-4.7-5.9-7.1-12.8-7.1-20.8c0-5.8,1.2-11,3.7-15.5
		s5.9-8,10.3-10.5C184.8,62.2,189.8,61,195.4,61z M194.9,66.7c-4.5,0-8.2,1.8-11.3,5.3c-3.9,4.4-5.9,10.7-5.9,19.1
		c0,8,1.7,14.2,5,18.4c3,3.8,7.1,5.6,12.2,5.6c3.3,0,6.3-0.9,8.9-2.6c2.6-1.8,4.7-4.6,6.3-8.4c1.6-3.8,2.4-8.4,2.4-13.6
		c0-5.1-0.9-9.6-2.6-13.7c-1.3-3.2-3.3-5.7-6-7.5C201.3,67.5,198.3,66.7,194.9,66.7z"/>
	<path class="st0" d="M229.9,62.4l22.2-0.9v37.7c0,3.3,0.5,6,1.4,7.9c0.9,2,2.3,3.5,4.2,4.5c1.9,1.1,4.1,1.6,6.7,1.6
		c3.1,0,6.7-0.8,10.6-2.5c4-1.7,7.9-4.2,11.9-7.5V76c0-2.9-0.2-4.8-0.6-5.7c-0.4-0.9-1.2-1.6-2.3-2.2c-1.1-0.5-2.8-0.8-5.2-0.8h-4.3
		v-4.9l22.2-0.9v43.7c0,2.8,0.2,4.8,0.7,5.8c0.5,1.1,1.2,1.8,2.1,2.3c0.9,0.5,2.8,0.7,5.5,0.7h1.8v4.9l-19.5,1v-10.8
		c-5.4,4.3-10,7.2-14,8.8c-4,1.6-8,2.4-12.1,2.4c-3,0-5.7-0.4-7.9-1.2c-2.2-0.8-4.2-2.1-5.9-3.7s-3-3.6-3.9-5.9
		c-0.9-2.3-1.3-4.8-1.3-7.4V75.4c0-2.4-0.2-4.1-0.6-5c-0.4-1-1.1-1.7-2.1-2.3c-1-0.6-2.4-0.8-4.1-0.8h-5.4V62.4z"/>
	<path class="st0" d="M330.1,42.5h4.2v19.9h17.4v5.9h-17.4v35.3c0,3,0.3,5.2,0.8,6.4s1.4,2.3,2.7,3.2c1.3,0.8,2.7,1.2,4.2,1.2
		c3.7,0,7.8-1.7,12.3-5v5.7c-5.1,3.5-10.3,5.2-15.6,5.2c-3,0-5.7-0.7-8.1-2c-2.4-1.3-4.1-2.9-4.9-4.7c-0.9-1.8-1.3-4.9-1.3-9.4v-36
		h-10.3v-4.9c3.3-0.7,5.9-1.9,8-3.5c2-1.6,3.7-3.6,4.9-6.1C328.3,51.3,329.3,47.5,330.1,42.5z"/>
	<path class="st0" d="M465.1,37.2h4.2l7.4,27.2l-5.4,1.5c-2.9-6.3-5.2-10.5-6.7-12.7c-2.5-3.5-5.6-6.2-9.3-8.3c-3.7-2-7.8-3-12.3-3
		c-5.3,0-10.1,1.4-14.6,4.3c-4.4,2.8-8,7-10.8,12.5s-4.1,11.6-4.1,18.5c0,7,1.4,13.3,4.2,18.8c2.8,5.5,6.6,9.8,11.3,12.7
		c4.8,3,9.9,4.5,15.4,4.5c5.2,0,10.5-1.5,15.9-4.5c5.4-3,10.1-7.2,14.1-12.5l4.7,3.2c-2.4,3.6-5,6.6-7.9,9.1c-4.5,4-9.1,7-13.9,8.9
		c-4.8,1.9-10.1,2.9-15.8,2.9c-12.7,0-23-4.7-30.9-14.1c-6.6-7.8-9.8-17.1-9.8-27.9c0-7.9,1.8-15.1,5.4-21.5
		c3.6-6.4,8.6-11.5,15-15.3c6.4-3.8,13.3-5.7,20.7-5.7c3.9,0,7.6,0.5,11,1.6c3.4,1.1,6.8,2.8,10.3,5.2L465.1,37.2z"/>
	<path class="st0" d="M529.6,85l0-6.4c0-4.3-1.2-7.4-3.6-9.3c-2.4-1.9-5.9-2.8-10.3-2.8c-2.2,0-4.1,0.3-5.8,0.8s-3,1.3-4,2.2
		c-1,0.9-1.7,2-2.2,3.1c-0.2,0.4-0.7,2.1-1.4,5c-0.9,3.5-2.7,5.3-5.4,5.3c-1.6,0-2.8-0.5-3.8-1.6c-1-1-1.4-2.4-1.4-4.2
		c0-2.6,1-5.1,2.9-7.6c1.9-2.5,4.8-4.5,8.8-6.2c3.9-1.6,8.6-2.4,13.9-2.4c5,0,9.3,0.8,12.8,2.3c3.6,1.5,6.2,3.8,7.9,6.6
		c1.2,2,1.8,5.6,1.8,10.9v22.5c0,3.2,0.1,5.3,0.3,6.3c0.4,1.7,1.2,2.9,2.3,3.8c1.1,0.8,2.5,1.3,4.2,1.3c1.8,0,3.9-0.4,6.4-1.2v5.1
		c-3.2,0.9-6.2,1.4-8.7,1.4c-2.8,0-5.1-0.4-7-1.2c-1.9-0.8-3.4-1.9-4.7-3.4c-1.2-1.5-2-3.3-2.3-5.4c-4.7,3.7-8.9,6.3-12.7,7.7
		c-3.8,1.5-7.6,2.2-11.5,2.2c-5.4,0-9.8-1.5-13.1-4.4c-3.4-2.9-5-6.4-5-10.3c0-2.4,0.6-4.6,1.8-6.8c1.2-2.1,3.1-4,5.6-5.7
		c2.5-1.6,6.5-3.1,11.9-4.3C512.5,87.1,520,86,529.6,85z M529.5,90.1c-9.1,1.3-14.7,2.2-16.8,2.8c-4.3,1-7.3,2.1-9.1,3.2
		c-1.8,1.2-3.1,2.4-3.9,3.8s-1.2,2.8-1.2,4.3s0.4,3,1.3,4.4c0.9,1.4,2.1,2.5,3.7,3.4c1.6,0.8,3.3,1.2,5.1,1.2c2.5,0,5.4-0.6,8.6-1.8
		c3.2-1.2,7.3-3.6,12.3-7.1L529.5,90.1z"/>
	<path class="st0" d="M556.9,70.8v-4.9c2.8-0.2,5.4-0.7,7.6-1.4c2.2-0.7,4.8-1.9,7.6-3.5h4.4v11.1c2.8-3.4,6-6.1,9.7-8.1
		c3.7-2,7-3,9.9-3c2.9,0,5.2,0.7,6.9,2.1c1.7,1.4,2.5,3,2.5,5c0,1.4-0.6,2.6-1.7,3.7c-1.1,1.1-2.5,1.6-4,1.6c-0.7,0-1.3-0.1-1.8-0.3
		c-0.5-0.2-1.3-0.6-2.2-1.3c-2.1-1.4-3.9-2.1-5.4-2.1c-2,0-4.1,0.8-6.4,2.5c-3,2.1-5.3,4.2-7,6.2v27c0,2.3,0.1,3.9,0.4,4.8
		c0.3,0.8,0.7,1.6,1.3,2.2c0.6,0.6,1.3,1,2.2,1.3c0.9,0.3,2.4,0.4,4.5,0.4h1.9v4.9h-30.3V114h2.5c2.4,0,3.9-0.2,4.7-0.6
		c1-0.6,1.8-1.4,2.3-2.4c0.5-1,0.7-2.9,0.7-5.6V70.8H556.9z"/>
</g>
</svg>
