<svg id="圖層_1" data-name="圖層 1" xmlns="http://www.w3.org/2000/svg" viewBox="0 0 293.13 72.79"><defs><style>.cls-1,.cls-2{fill:#fff;}.cls-1,.cls-3,.cls-4{stroke:#fff;}.cls-1,.cls-3{stroke-miterlimit:10;}.cls-3,.cls-4{fill:none;}</style></defs><title>top_mv_title</title><path class="cls-1" d="M34,50.37H11.1V40.61h3.52V19.37H9.93v7.41H2.29V9.62h40.4V26.79H35V19.37H30.38V40.61H34Z" transform="translate(-1.79 -8.59)"/><path class="cls-1" d="M81.79,50.37H59.64V40.61h3.31V19.37H59.64V9.62H81.79q3,0,5.54.1t4.37.29a32.77,32.77,0,0,1,3.34.51,12.35,12.35,0,0,1,6.94,4,10.81,10.81,0,0,1,2.7,7.32A10.47,10.47,0,0,1,103,27.55a9.87,9.87,0,0,1-4.31,3.75l5.63,9.32h2.93v9.76H92.6L83.72,33.73h-5v6.88h3.08ZM78.71,18.55v7.76h1.76a34.44,34.44,0,0,0,4.69-.21,3.76,3.76,0,0,0,2.23-1.17,3.37,3.37,0,0,0,.91-2.49,3.47,3.47,0,0,0-.91-2.52,3.83,3.83,0,0,0-2.31-1.17,38.85,38.85,0,0,0-4.92-.21Z" transform="translate(-1.79 -8.59)"/><path class="cls-1" d="M137.06,50.37H120.91V40.61H124l7.65-21.24h-3.28V9.62h29.3v9.76H154.4l7.79,21.24h3v9.76H143.91V41.43h3.57l-1.55-5.13H135.5l-1.79,5.13h3.34ZM140.89,20l-3.84,11.28h7.29Z" transform="translate(-1.79 -8.59)"/><path class="cls-1" d="M189.72,50.37h-9.17V37.3h9.17q1.64,5.33,6.18,5.33,3.28,0,3.28-2.64A2.8,2.8,0,0,0,198,37.71,27,27,0,0,0,192.86,35a48.29,48.29,0,0,1-7.32-3.9,12.64,12.64,0,0,1-3.75-4.13,11.06,11.06,0,0,1-1.55-5.77,11.11,11.11,0,0,1,3.69-8.88,13.25,13.25,0,0,1,9-3.19,13.87,13.87,0,0,1,9.08,3V9.62h9.23v11.6h-9.11q-1.67-4.8-5.92-4.8-3,0-3,2.55a2.13,2.13,0,0,0,.85,1.85,44.68,44.68,0,0,0,5.3,2.84,81,81,0,0,1,8,4.37,10.71,10.71,0,0,1,2.09,1.89,13.83,13.83,0,0,1,1.77,2.5,12.49,12.49,0,0,1,1.61,6.21,11.39,11.39,0,0,1-3.81,8.67,13.43,13.43,0,0,1-9.61,3.6,16.13,16.13,0,0,1-9.76-3.19Z" transform="translate(-1.79 -8.59)"/><path class="cls-1" d="M251.47,50.37H230V40.61h3.08V19.37H230V9.62h21.5v9.76h-2.61v6.21h9.43V19.37h-2.64V9.62h21.47v9.76h-3.08V40.61h3.08v9.76H255.66V40.61h2.64V33.93h-9.43v6.68h2.61Z" transform="translate(-1.79 -8.59)"/><path class="cls-2" d="M44.47,71.65V70.54H43.3v2.11H40V70.54H38.79q-.12,1.88-2.64,2.64l-.59-1q2.23-.47,2.23-1.64H35.21V69.6h2.58V68.2h.94q.47.06.06.35V69.6H40V67.85h.94q.47.06.06.35V69.6H42.3V67.85h.94q.47.06.06.35V69.6h1.17V68.2h.94q.47.06.06.35V69.6h2.87v.94H45.47v.76q0,.41.47.41h.53a.38.38,0,0,0,.41-.35l.06-.47,1,.23-.12.76a.8.8,0,0,1-.88.76H45.41Q44.47,72.65,44.47,71.65Zm-9.26,5.16V73.35h13v3.34H47V74.47H42.3v1.17h3.87v3.93q0,.94-.88.94H44.24L44,79.39h.76a.21.21,0,0,0,.23-.23v-2.4H42.3v4.39H41.13V76.75h-2.7V80.5H37.26V75.64h3.87V74.47H36.38v2.34ZM41,71.71H42.3V70.54H41Z" transform="translate(-1.79 -8.59)"/><path class="cls-2" d="M60.42,73.94l.53.76a16.82,16.82,0,0,0,1.76-3.22l1.11.23q.53.18-.06.41-.29.59-.53,1a10.19,10.19,0,0,1,2.64,1.7l-.7,1.05a29.87,29.87,0,0,0-2.4-1.82q-.53.82-1,1.46A23.12,23.12,0,0,0,66.57,79l-1,1.29a22,22,0,0,1-5.16-4.51V81.2H59.25V75.93a18.66,18.66,0,0,1-5.16,4.75l-.88-1.23a16.6,16.6,0,0,0,6-5.45V71.19H53.51V70.07h5.74V67.9h1.11q.47.06.06.35v1.82h5.74v1.11H60.42Zm-2.05.47-.7.94q-.7-.53-1.35-.94a11.63,11.63,0,0,1-1.7,1.7l-.88-.94a7.33,7.33,0,0,0,2.75-3.63l1.11.18q.59.18,0,.41A6.61,6.61,0,0,1,57,73.41,8.71,8.71,0,0,1,58.37,74.41Z" transform="translate(-1.79 -8.59)"/><path class="cls-2" d="M73.32,70.54A24.83,24.83,0,0,0,74,68l1.41.53q.23.24-.18.29a9,9,0,0,1-.64,1.76h2.17v9.67H75.55v-.7H73v1.17H71.8V70.54Zm2.23,1.11H73v2.58h2.58Zm0,3.69H73v3h2.58Zm4-3.69a9.58,9.58,0,0,1-1.87,3.11l-.88-1.05A9.73,9.73,0,0,0,79.3,68l1.23.41q.53.24-.06.35-.18.82-.47,1.76h4.22l-.29,8q-.06,2.34-1.87,2.34H80.41l-.18-1.11h1.52q.82,0,.88-1.05l.29-7Zm.7,5.45A13.67,13.67,0,0,0,78.42,75l1-1.05A12.63,12.63,0,0,1,81.29,76Z" transform="translate(-1.79 -8.59)"/><path class="cls-2" d="M89.21,80.09A5.7,5.7,0,0,0,92.32,76l1.29.35q.23.24-.18.29L93,77.69a5.36,5.36,0,0,0,2.4,1.7v-4H89.68V74.29h12.66V75.4H96.6v1.35h4.22v1.11H96.6v1.88h5.8l-.29,1.11H97.42a5.82,5.82,0,0,1-4.86-2.17,6.69,6.69,0,0,1-2.64,2.52Zm11-6.74H91.61v-5h8.61Zm-1.17-3V69.25H92.79v1.11Zm0,2.05V71.3H92.79v1.11Z" transform="translate(-1.79 -8.59)"/><path class="cls-2" d="M115.3,71.54H120v1.11h-9.61v2.93a6.46,6.46,0,0,1-2.4,5.51L107.1,80q2.11-1.29,2.11-4.63V72.65a6.72,6.72,0,0,1-1.7,1.11L107,72.59a7.52,7.52,0,0,0,4-4.69l1.29.18q.23.18-.18.41l-.23.41h4.28l.23-.23.88.64q.23.29-.23.35Zm-5,0H114L115.24,70h-3.81A12.58,12.58,0,0,1,110.32,71.54Zm3.16,8.26h4.75a.75.75,0,0,0,.82-.7l.12-.88,1.35.29-.23,1.23a1.31,1.31,0,0,1-1.41,1.17h-5.74q-1.23,0-1.23-1.29v-5.8h5.92v3.52a.83.83,0,0,1-.94.94h-1.41l-.12-1.11h1.05a.21.21,0,0,0,.23-.23v-2h-3.57v4.34Q113.07,79.8,113.48,79.8Z" transform="translate(-1.79 -8.59)"/><path class="cls-2" d="M128.9,75.7l-.88-.94v6.56h-1V74.94a8,8,0,0,1-1.46,2.75l-.7-1.11A15.2,15.2,0,0,0,127,71.83h-1.64V70.72H127V67.9H128q.47.06.06.35v2.46h1.35v1.11H128v1.64a5.16,5.16,0,0,1,1.52,1.17Zm5.39-3.11q0,1.41.12,2.64H136a2.61,2.61,0,0,0-.41-.88l1.11-.29a4.14,4.14,0,0,1,.59,1.17h1.23v.94h-4a7.43,7.43,0,0,0,.59,2.05,7.71,7.71,0,0,0,1.41-1.82l1,.53q.35.24-.18.35a9.47,9.47,0,0,1-1.46,1.82,2.24,2.24,0,0,0,1.35.82q.35,0,.53-1.23l1,.59a2.41,2.41,0,0,1-.82,1.82q-1,.64-2.93-1.29A9.38,9.38,0,0,1,132,81.26l-.53-1.11a8.49,8.49,0,0,0,2.75-1.29,7.32,7.32,0,0,1-.76-2.7h-2.17V77a7,7,0,0,1,2,1.05l-.7,1.05q-.47-.41-1.29-1a4.62,4.62,0,0,1-1.87,3.16l-.94-.94a3.34,3.34,0,0,0,1.64-3.22v-1h-.64v-.94h3.93q-.06-.59-.06-1l-.82.29-.12-.59-2.4.35q-.12.41-.23.18l-.35-1.11H130l.7-1.23-1.23-.88.47-.76.18.12,1.11-2.4.88.59c.16.16.12.23-.12.23l-1.23,2,.41.29.94-1.58.76.53c.16.16.12.23-.12.23L131,73.29l1.23-.12-.35-.94.7-.29a6.06,6.06,0,0,1,.76,1.88V68h.94q.47.06.06.35Zm3.22.94-2.4.47q-.12.41-.23.18l-.35-1.05.53-.06.7-1.05L134.35,71l.47-.7.23.18,1.17-2.23.82.53c.16.16.12.23-.12.23l-1.17,1.82.53.35.94-1.46.76.41c.16.16.12.23-.12.23L136,73l1.29-.18-.35-.82.76-.18a6.54,6.54,0,0,1,.88,2.05l-.88.29Z" transform="translate(-1.79 -8.59)"/><path class="cls-2" d="M142.92,72.88a3.41,3.41,0,0,1,1-2.52,2.53,2.53,0,0,1,1.88-.7,2.7,2.7,0,0,1,2,.7,2.62,2.62,0,0,1,.76,1.93,2.31,2.31,0,0,1-.7,1.7l-1.11,1.11a2.15,2.15,0,0,0-.53,1.58h-1.05a3.65,3.65,0,0,1,.41-1.93,8.3,8.3,0,0,1,1.11-1.29,1.52,1.52,0,0,0,.47-1.11,1.67,1.67,0,0,0-.41-1.23,1.35,1.35,0,0,0-1-.35,1.19,1.19,0,0,0-.88.35,2.39,2.39,0,0,0-.59,1.76ZM145,78.39h1.29V79.8H145Z" transform="translate(-1.79 -8.59)"/><path class="cls-2" d="M153.3,77.45a14.54,14.54,0,0,0,1.93-4.92l1.41.41q.23.24-.18.29a15.42,15.42,0,0,1-2.05,4.92ZM166,71.36H161.8V80a.83.83,0,0,1-.94.94h-1.29l-.18-1.11h1a.21.21,0,0,0,.23-.23V71.36h-1.82v4.28q0,4.22-4.45,5.51L153.83,80q3.81-1.05,3.81-4.39V71.36h-4.28V70.25H159V68h1.11q.59.12.06.47v1.82H166Zm-3.46,1.82,1.11-.53a23.72,23.72,0,0,1,2.46,5.21l-1.29.59A33.06,33.06,0,0,0,162.5,73.18Z" transform="translate(-1.79 -8.59)"/><path class="cls-2" d="M171.24,79.92,171,78.45a41.46,41.46,0,0,0,6.62-.94l.18,1a44.64,44.64,0,0,1-6.09,1.29Q171.42,80.09,171.24,79.92ZM183,77.86l1.29.53-.12,1.05Q184,81,183.26,81q-1.64,0-3.28-2.58a15.45,15.45,0,0,1-4.39,2.93L175,80.15a13.3,13.3,0,0,0,4.45-2.7,15.18,15.18,0,0,1-1.05-5.8h-7V70.54h6.86V68h1.11q.47.06.06.35v2.23h2.17q-.65-.64-1.46-1.35l.88-.88a6.38,6.38,0,0,1,1.58,1.41l-.82.82h1.93v1.11h-4.16a16.41,16.41,0,0,0,.7,4.69,13.81,13.81,0,0,0,1.41-3.69l1.11.59q.47.24-.18.47a11.1,11.1,0,0,1-1.82,3.81,4.05,4.05,0,0,0,1.58,1.88q.41.24.47-.23Zm-9.61-.59h-1.17V72.83h4.86v3.87h-3.69Zm0-3.52v2h2.52v-2Z" transform="translate(-1.79 -8.59)"/><path class="cls-2" d="M189,80.09a5.7,5.7,0,0,0,3.11-4.1l1.29.35q.23.24-.18.29l-.41,1.05a5.36,5.36,0,0,0,2.4,1.7v-4h-5.74V74.29h12.66V75.4h-5.74v1.35h4.22v1.11h-4.22v1.88h5.8l-.29,1.11h-4.69a5.82,5.82,0,0,1-4.86-2.17,6.69,6.69,0,0,1-2.64,2.52Zm11-6.74h-8.61v-5H200Zm-1.17-3V69.25h-6.27v1.11Zm0,2.05V71.3h-6.27v1.11Z" transform="translate(-1.79 -8.59)"/><path class="cls-2" d="M212.4,71.42v5h-1.93v1.05h2.4v1.11h-2.4v2.64h-1V78.63h-2.58V77.51h2.58V76.46h-1.93v-5h1.93v-1h-2.23V69.31h2.23V67.9h.94q.47.06.06.35v1.05h2.34v1.11h-2.34v1Zm-3.87,2h.94V72.36h-.94Zm0,2.11h.94V74.35h-.94Zm1.93-2.11h.94V72.36h-.94Zm0,2.11h.94V74.35h-.94ZM217.09,70v.76h2.52v3.75h-.94A14.73,14.73,0,0,1,220.31,76l-.88.64-.47-.59-.76.06v.94h2.29V78H218.2v2.29q0,.94-.82.94h-.94l-.29-1.11H217a.21.21,0,0,0,.23-.23V78h-4V77.1h4v-.94l-3.46.18q-.24.53-.41.06l-.23-1.05,3-.06v-.76h-2.46V70.77h2.46V70h-2.81v-.94h2.81V67.79H217q.47.06.06.35v.94h3.16V70Zm-1.23,9.49-.88.88a6.8,6.8,0,0,0-1.23-1.52l.82-.76A7.29,7.29,0,0,1,215.86,79.51Zm.23-7.21v-.82h-1.46v.82Zm0,.7h-1.46v.82h1.46Zm2.52-.7v-.82h-1.52v.82Zm0,1.52V73h-1.52v.82Zm-1.52.7v.76l1.11-.06-.47-.41.64-.29Z" transform="translate(-1.79 -8.59)"/><path class="cls-2" d="M228.7,75.7l-.88-.94v6.56h-1V74.94a8,8,0,0,1-1.46,2.75l-.7-1.11a15.2,15.2,0,0,0,2.11-4.75h-1.64V70.72h1.7V67.9h.94q.47.06.06.35v2.46h1.35v1.11h-1.35v1.64a5.16,5.16,0,0,1,1.52,1.17Zm5.39-3.11q0,1.41.12,2.64h1.58a2.61,2.61,0,0,0-.41-.88l1.11-.29a4.14,4.14,0,0,1,.59,1.17h1.23v.94h-4a7.43,7.43,0,0,0,.59,2.05,7.71,7.71,0,0,0,1.41-1.82l1,.53q.35.24-.18.35a9.47,9.47,0,0,1-1.46,1.82,2.24,2.24,0,0,0,1.35.82q.35,0,.53-1.23l1,.59a2.41,2.41,0,0,1-.82,1.82q-1,.64-2.93-1.29a9.38,9.38,0,0,1-2.93,1.46l-.53-1.11A8.49,8.49,0,0,0,234,78.86a7.32,7.32,0,0,1-.76-2.7H231.1V77a7,7,0,0,1,2,1.05l-.7,1.05q-.47-.41-1.29-1a4.62,4.62,0,0,1-1.87,3.16l-.94-.94a3.34,3.34,0,0,0,1.64-3.22v-1h-.64v-.94h3.93q-.06-.59-.06-1l-.82.29-.12-.59-2.4.35q-.12.41-.23.18l-.35-1.11h.59l.7-1.23-1.23-.88.47-.76.18.12L231,68.2l.88.59c.16.16.12.23-.12.23l-1.23,2,.41.29.94-1.58.76.53c.16.16.12.23-.12.23l-1.82,2.81,1.23-.12-.35-.94.7-.29a6.06,6.06,0,0,1,.76,1.88V68H234q.47.06.06.35Zm3.22.94-2.4.47q-.12.41-.23.18l-.35-1.05.53-.06.7-1.05L234.15,71l.47-.7.23.18L236,68.2l.82.53c.16.16.12.23-.12.23l-1.17,1.82.53.35.94-1.46.76.41c.16.16.12.23-.12.23L235.79,73l1.29-.18-.35-.82.76-.18a6.54,6.54,0,0,1,.88,2.05l-.88.29Z" transform="translate(-1.79 -8.59)"/><line class="cls-3" x1="22.96" y1="66.41" x2="1.21" y2="66.41"/><circle class="cls-3" cx="287.95" cy="37.07" r="4.68"/><path class="cls-4" d="M289.81,42.8a2.39,2.39,0,0,1,1.21.3q.51.29.51.62a.39.39,0,0,1-.12.29.46.46,0,0,1-.33.14.54.54,0,0,1-.36-.17,1.27,1.27,0,0,0-.9-.38,1.32,1.32,0,0,0-.64.14.5.5,0,0,0-.28.46.54.54,0,0,0,.26.45A3.79,3.79,0,0,0,290,45a4,4,0,0,1,1.28.55,1.29,1.29,0,0,1,.51,1.05,1.36,1.36,0,0,1-.6,1.18,2.41,2.41,0,0,1-1.41.38,2.64,2.64,0,0,1-1.45-.4q-.59-.38-.59-.73a.4.4,0,0,1,.1-.26.41.41,0,0,1,.34-.17.44.44,0,0,1,.27.09l.15.14a1.65,1.65,0,0,0,1.19.51,1.39,1.39,0,0,0,.72-.17.56.56,0,0,0,.3-.5.61.61,0,0,0-.31-.53,5,5,0,0,0-1-.37,4.4,4.4,0,0,1-1.16-.51,1.15,1.15,0,0,1-.48-1,1.28,1.28,0,0,1,.39-.93A2,2,0,0,1,289.81,42.8Z" transform="translate(-1.79 -8.59)"/></svg>