<?xml version="1.0" encoding="utf-8"?>
<!-- Generator: Adobe Illustrator 21.0.0, SVG Export Plug-In . SVG Version: 6.00 Build 0)  -->
<svg version="1.1" id="圖層_1" xmlns="http://www.w3.org/2000/svg" xmlns:xlink="http://www.w3.org/1999/xlink" x="0px" y="0px"
	 viewBox="0 0 1020.6 344.9" style="enable-background:new 0 0 1020.6 344.9;" xml:space="preserve">
<style type="text/css">
	.st0{fill:#FFFFFF;}
	.st1{fill:none;}
</style>
<g>
	<path class="st0" d="M100.2,107.8v5.3H58.5v-5.3l15.1-1.8l-9-26.9H29.1l-8.8,26.7l15,2v5.3H1.1v-5.3l12.5-2l32.6-96h9l33,96.6
		L100.2,107.8z M62.7,73l-16-47.6L31.1,73H62.7z"/>
	<path class="st0" d="M130.6,49.8c7.3-8,15.5-11.5,23.7-11.5c16.5,0,29.3,14,29.3,37.7c0,23.1-12.9,39.1-31.4,39.1
		c-7,0-14.7-2.4-21.6-10.9l-1.3,10.5l-22.8-1.5v-4.8l11.5-1.7c0.1-7.8,0.3-18.6,0.3-25.8V12l-12.5-1.3V6.1l23.2-6.4l2,1.1l-0.4,21.8
		V49.8z M130.9,98.8c6.3,6,12.6,8.4,18.5,8.4c10.9,0,20.7-8.7,20.7-30.1c0-20.6-8.4-31.1-20.2-31.1c-4.8,0-10.6,1.1-19,8.8V98.8z"/>
	<path class="st0" d="M197.3,77c0-25.3,17.2-38.6,35.1-38.6c17.8,0,35.3,13.2,35.3,38.6c0,25.3-17.4,38.1-35.3,38.1
		C214.3,115,197.3,102.2,197.3,77z M253.5,77c0-21.3-7.8-32.8-21.1-32.8c-13.4,0-21.1,11.5-21.1,32.8c0,21.1,7.7,32.2,21.1,32.2
		C245.7,109.2,253.5,98.1,253.5,77z"/>
	<path class="st0" d="M358,108.5v4.6l-21.3,1.3l-1.4-13.9c-7.8,9.7-17.6,14.6-27.3,14.6c-12.5,0-20.2-7.3-20-27.7l0.4-39.1L277.3,46
		v-4.5l22.5-2.2l1.5,1.5l-0.7,21.7v24.1c0,13.7,4.3,18.5,12.7,18.5c7.4,0,14.7-3.4,21.4-10.1l0.4-46.6l-10.9-2.1v-4.6l22.1-2.4
		l1.4,1.5l-0.4,21.7v44.2L358,108.5z"/>
	<path class="st0" d="M413,107.2c-3.9,4.9-9.9,7.8-17.8,7.8c-10.9,0-17.4-5.6-17.4-17.9c0-3.6,0.1-7,0.1-12.7V47.1h-13v-5.5
		l13.7-1.7l4.1-20.7h8.8l-0.8,21.1h20.6v6.7h-20.7v49.4c0,8.1,3.4,11.5,8.8,11.5c3.6,0,6.4-1.4,10.5-4.3L413,107.2z"/>
</g>
<g>
	<path class="st1" d="M34,257.5c0,11.3,0,22.4,0.3,34l14.6,1.7v5.3H5.4v-5.3l14.3-1.5c0.3-13.4,0.3-26.9,0.3-40.6v-7.6
		c0-13.7,0-27.3-0.3-40.7l-14.3-1.5v-5.3h41.2c25.8,0,38.5,12.2,38.5,30.4c0,17.1-12,31.2-43,31.2H34z M34.2,201.9
		C34,215.5,34,229.5,34,243.5v7.8h9.8c19.2,0,26.9-10.2,26.9-25.1c0-15.5-8.3-24.4-26.6-24.4H34.2z"/>
	<path class="st1" d="M106.2,261.4c0.3,20.3,10.5,30.5,25.5,30.5c10.1,0,16.1-4.5,21.6-11.1l3.1,2.1c-5.6,10.8-15.4,17.5-29,17.5
		c-20.6,0-34.6-13.9-34.6-37.8c0-23.7,16.2-38.9,35.1-38.9c16.5,0,28.7,11.2,28.7,29.3c0,3.5-0.4,6.4-1.1,8.5L106.2,261.4z
		 M135.9,256c6.7,0,8.3-3.5,8.3-8.5c0-9.5-7-17.8-16.9-17.8c-9.4,0-19.3,7.8-20.9,26L135.9,256z"/>
	<path class="st1" d="M252.1,293.8v4.8h-35.3v-4.8l11.3-1.7c0.1-7.7,0.3-18.3,0.3-25.8v-14.3c0-13.9-3.8-18.6-12.7-18.6
		c-6.9,0-13.4,2.9-21.4,10.2v22.7c0,7.1,0.1,17.9,0.3,25.8l10.6,1.7v4.8h-35.3v-4.8l11.3-1.7c0.1-7.8,0.3-18.6,0.3-25.8v-8
		c0-8.7-0.1-14-0.4-20.2l-12.2-1.3v-4.6l21.6-8.4l2.1,1.4l1.3,12.6c7.8-8.7,18.1-14.1,27.6-14.1c13,0,19.6,8.1,19.6,27.9v14.7
		c0,7.4,0.1,18.1,0.3,25.8L252.1,293.8z"/>
	<path class="st1" d="M332.6,234.6l-15.5-0.4c2.5,3.9,4.1,8.8,4.1,14.7c0,16.1-11.6,25.3-27.6,25.3c-4.5,0-8.5-0.7-12.2-2
		c-2.8,3.5-4.2,6.4-4.2,10.1c0,4.5,2.1,7.1,9.8,7.1h20.3c16.8,0,24.6,7.3,24.6,19.5c0,13.3-12.7,26.3-37.8,26.3
		c-22.3,0-31.9-7.8-31.9-18.9c0-6.6,4.1-11.8,14.8-16.9c-6.3-2-9.9-5.9-9.9-11.9c0-4.9,2.8-9.8,10.5-16.9
		c-7.3-4.1-11.8-11.3-11.8-21.7c0-16,11.6-25.1,27.7-25.1c7.8,0,14.6,2,19.3,6l17.5-5.9l2.2,1.5V234.6z M287.9,300.6
		c-3.1,0-5.5-0.1-7.6-0.3c-4.5,4.5-6.3,8.5-6.3,13.9c0,10.2,8,14.8,20,14.8c17.5,0,26.6-7,26.6-16.1c0-6.9-4.1-12.3-15.1-12.3H287.9
		z M308.9,248.6c0-11.5-5.6-19.5-15.3-19.5c-9.8,0-15.8,8.1-15.8,19.9c0,12,5.7,20,15.3,20C303,269,308.9,260.5,308.9,248.6z"/>
	<path class="st1" d="M422.3,293.8v4.8H387v-4.8l11.5-1.7c0.1-7.7,0.3-18.3,0.3-25.8v-14.3c0-14.1-4.2-18.6-12.9-18.6
		c-7,0-13.6,2.5-22,10.2v22.7c0,7.1,0.1,17.9,0.3,25.8l10.6,1.7v4.8h-35.3v-4.8l11.5-1.7c0.1-7.8,0.3-18.6,0.3-25.8v-69l-12.5-1.1
		v-4.6l23.2-6.4l2,1.1l-0.4,21.8v30.1c7.7-8.7,18.1-14.4,28-14.4c13,0,19.7,8,19.7,28v14.6c0,7.4,0.1,18.1,0.3,25.8L422.3,293.8z"/>
	<path class="st1" d="M511.1,293.9v4.6l-21.3,1.3l-1.4-13.9c-7.8,9.7-17.6,14.6-27.3,14.6c-12.5,0-20.2-7.3-20-27.7l0.4-39.1
		l-11.1-2.2V227l22.5-2.2l1.5,1.5l-0.7,21.7v24.1c0,13.7,4.3,18.5,12.7,18.5c7.4,0,14.7-3.4,21.4-10.1l0.4-46.6l-10.9-2.1v-4.6
		l22.1-2.4l1.4,1.5l-0.4,21.7v44.2L511.1,293.9z"/>
	<path class="st1" d="M606,202.6c-0.3,13.4-0.3,27.2-0.3,40.9v7.6c0,13.4,0,27,0.3,40.5l15.8,1.7v5.3h-46.2v-5.3l15.8-1.7
		c0.3-13.3,0.3-26.7,0.3-40.5v-7.6c0-13.7,0-27.4-0.3-40.9h-24.1l-4.2,20.6h-7.7l1.3-27.3h84.1l1,27.3h-7.4l-4.3-20.6H606z"/>
	<path class="st1" d="M670.7,243.8c5-12.6,13.9-20,22.4-20c4.8,0,9.2,2.1,11.1,5.7c0,6.4-2.5,10.5-8.7,10.5c-3.6,0-6.6-1.7-9.5-4.3
		l-1.8-1.7c-6.3,4.6-10.4,10.9-13.3,20.3v12c0,7.1,0.1,17.8,0.3,25.6l12.7,1.8v4.8h-37.2v-4.8l11.2-1.7c0.1-7.7,0.3-18.6,0.3-25.8
		v-8c0-8.7-0.1-14-0.4-20.2l-12.2-1.3v-4.6l21.6-8.4l2.1,1.4L670.7,243.8z"/>
	<path class="st1" d="M780.6,292.4c-3.5,5.7-7.8,7.8-13.2,7.8c-7.6,0-12.5-4.6-13.7-12c-8.4,8.3-13.7,12.3-23,12.3
		c-11.2,0-20.3-6.4-20.3-18.8c0-9.4,5.3-16.1,25.3-23.2c4.9-1.8,11.5-3.6,17.6-5v-4.8c0-15.1-4.3-19-14.7-19c-2.7,0-5.5,0.4-8.7,1.3
		l-2.9,10.5c-1.3,4.8-3.8,7.1-7.7,7.1c-4.2,0-6.4-2.1-6.9-5.9c2.7-11.8,13.9-18.9,29.7-18.9c16.1,0,23.8,7.3,23.8,26.3v33.3
		c0,7.3,2.1,9.8,5.6,9.8c2.5,0,4.2-1.4,6.2-3.8L780.6,292.4z M753.4,258.2c-5.5,1.5-10.8,3.4-14.1,4.6
		c-13.4,5.2-15.8,11.2-15.8,16.8c0,8.3,5.3,11.9,12.5,11.9c5.5,0,9-2.2,17.5-9V258.2z"/>
	<path class="st1" d="M821.2,256.5c15.1,5.3,21,12.5,21,22.1c0,11.8-10.2,21.8-29.7,21.8c-8.8,0-15.5-2-23.1-5.7l-0.3-16.8h7.3
		l3.4,14.1c3.6,1.7,7.7,2.5,12.6,2.5c12,0,17.6-5,17.6-12.3c0-6.7-4.2-10.2-14.3-14l-7.1-2.4c-11.3-4.2-18.8-10.2-18.8-20.7
		c0-11.3,9.5-21.4,26.7-21.4c8.3,0,14.7,2.2,21.4,6.3l-0.6,15.5h-6.9l-2.9-13c-3.6-1.8-7.3-2.8-11.1-2.8c-9.8,0-15,4.5-15,11.2
		c0,6.9,3.9,9.8,14.3,13.6L821.2,256.5z"/>
	<path class="st1" d="M934,293.8v4.8h-35.3v-4.8l11.5-1.7c0.1-7.7,0.3-18.3,0.3-25.8v-14.3c0-14.1-4.2-18.6-12.9-18.6
		c-7,0-13.6,2.5-22,10.2v22.7c0,7.1,0.1,17.9,0.3,25.8l10.6,1.7v4.8h-35.3v-4.8l11.5-1.7c0.1-7.8,0.3-18.6,0.3-25.8v-69l-12.5-1.1
		v-4.6l23.2-6.4l2,1.1l-0.4,21.8v30.1c7.7-8.7,18.1-14.4,28-14.4c13,0,19.7,8,19.7,28v14.6c0,7.4,0.1,18.1,0.3,25.8L934,293.8z"/>
</g>
</svg>
